<svg xmlns="http://www.w3.org/2000/svg" width="1017" height="412" viewBox="0 0 1017 412">
  <g fill="none" fill-rule="evenodd">
    <path fill="#2BCB96" fill-rule="nonzero" d="M692.481423,262.980347 C685.301722,262.980347 679.481423,257.160049 679.481423,249.980347 C679.481423,242.800646 685.301722,236.980347 692.481423,236.980347 C699.661125,236.980347 705.481423,242.800646 705.481423,249.980347 C705.481423,257.160049 699.661125,262.980347 692.481423,262.980347 Z M692.481423,260.980347 C698.556556,260.980347 703.481423,256.05548 703.481423,249.980347 C703.481423,243.905215 698.556556,238.980347 692.481423,238.980347 C686.406291,238.980347 681.481423,243.905215 681.481423,249.980347 C681.481423,256.05548 686.406291,260.980347 692.481423,260.980347 Z" transform="scale(-1 1) rotate(10 0 -7665.119)"/>
    <path fill="#2BCB96" fill-rule="nonzero" d="M767.983025,172.983025 C760.803323,172.983025 754.983025,167.162727 754.983025,159.983025 C754.983025,152.803323 760.803323,146.983025 767.983025,146.983025 C775.162727,146.983025 780.983025,152.803323 780.983025,159.983025 C780.983025,167.162727 775.162727,172.983025 767.983025,172.983025 Z M767.983025,170.983025 C774.058157,170.983025 778.983025,166.058157 778.983025,159.983025 C778.983025,153.907893 774.058157,148.983025 767.983025,148.983025 C761.907893,148.983025 756.983025,153.907893 756.983025,159.983025 C756.983025,166.058157 761.907893,170.983025 767.983025,170.983025 Z" transform="scale(-1 1) rotate(57 0 -1254.466)"/>
    <path fill="#2BCB96" fill-rule="nonzero" d="M359.046996,291.046996 C351.867294,291.046996 346.046996,285.226698 346.046996,278.046996 C346.046996,270.867294 351.867294,265.046996 359.046996,265.046996 C366.226698,265.046996 372.046996,270.867294 372.046996,278.046996 C372.046996,285.226698 366.226698,291.046996 359.046996,291.046996 Z M359.046996,289.046996 C365.122128,289.046996 370.046996,284.122128 370.046996,278.046996 C370.046996,271.971864 365.122128,267.046996 359.046996,267.046996 C352.971864,267.046996 348.046996,271.971864 348.046996,278.046996 C348.046996,284.122128 352.971864,289.046996 359.046996,289.046996 Z" transform="rotate(-146 359.047 278.047)"/>
    <path fill="#2BCB96" fill-rule="nonzero" d="M657.515743,90.2559937 C650.336041,90.2559937 644.515743,84.4356955 644.515743,77.2559937 C644.515743,70.076292 650.336041,64.2559937 657.515743,64.2559937 C664.695444,64.2559937 670.515743,70.076292 670.515743,77.2559937 C670.515743,84.4356955 664.695444,90.2559937 657.515743,90.2559937 Z M657.515743,88.2559937 C663.590875,88.2559937 668.515743,83.331126 668.515743,77.2559937 C668.515743,71.1808615 663.590875,66.2559937 657.515743,66.2559937 C651.44061,66.2559937 646.515743,71.1808615 646.515743,77.2559937 C646.515743,83.331126 651.44061,88.2559937 657.515743,88.2559937 Z" transform="scale(1 -1) rotate(-28 347.659 0)"/>
    <path fill="#B6E7E6" fill-rule="nonzero" d="M878.158429,148.691893 C870.978727,148.691893 865.158429,142.871595 865.158429,135.691893 C865.158429,128.512191 870.978727,122.691893 878.158429,122.691893 C885.338131,122.691893 891.158429,128.512191 891.158429,135.691893 C891.158429,142.871595 885.338131,148.691893 878.158429,148.691893 Z M878.158429,146.691893 C884.233561,146.691893 889.158429,141.767025 889.158429,135.691893 C889.158429,129.616761 884.233561,124.691893 878.158429,124.691893 C872.083297,124.691893 867.158429,129.616761 867.158429,135.691893 C867.158429,141.767025 872.083297,146.691893 878.158429,146.691893 Z" transform="rotate(126 878.158 135.692)"/>
    <path fill="#B6E7E6" fill-rule="nonzero" d="M962.727201,411.484517 C955.547499,411.484517 949.727201,405.664219 949.727201,398.484517 C949.727201,391.304815 955.547499,385.484517 962.727201,385.484517 C969.906903,385.484517 975.727201,391.304815 975.727201,398.484517 C975.727201,405.664219 969.906903,411.484517 962.727201,411.484517 Z M962.727201,409.484517 C968.802333,409.484517 973.727201,404.559649 973.727201,398.484517 C973.727201,392.409385 968.802333,387.484517 962.727201,387.484517 C956.652069,387.484517 951.727201,392.409385 951.727201,398.484517 C951.727201,404.559649 956.652069,409.484517 962.727201,409.484517 Z" transform="rotate(63 962.727 398.485)"/>
    <path fill="#B6E7E6" fill-rule="nonzero" d="M580.999635,71.906993 C573.819934,71.906993 567.999635,66.0866948 567.999635,58.906993 C567.999635,51.7272913 573.819934,45.906993 580.999635,45.906993 C588.179337,45.906993 593.999635,51.7272913 593.999635,58.906993 C593.999635,66.0866948 588.179337,71.906993 580.999635,71.906993 Z M580.999635,69.906993 C587.074768,69.906993 591.999635,64.9821253 591.999635,58.906993 C591.999635,52.8318608 587.074768,47.906993 580.999635,47.906993 C574.924503,47.906993 569.999635,52.8318608 569.999635,58.906993 C569.999635,64.9821253 574.924503,69.906993 580.999635,69.906993 Z" transform="rotate(19 581 58.907)"/>
    <path fill="#5BC1BF" fill-rule="nonzero" d="M814.825085,290.978243 C807.645383,290.978243 801.825085,285.157945 801.825085,277.978243 C801.825085,270.798542 807.645383,264.978243 814.825085,264.978243 C822.004786,264.978243 827.825085,270.798542 827.825085,277.978243 C827.825085,285.157945 822.004786,290.978243 814.825085,290.978243 Z M814.825085,288.978243 C820.900217,288.978243 825.825085,284.053376 825.825085,277.978243 C825.825085,271.903111 820.900217,266.978243 814.825085,266.978243 C808.749952,266.978243 803.825085,271.903111 803.825085,277.978243 C803.825085,284.053376 808.749952,288.978243 814.825085,288.978243 Z" transform="scale(1 -1) rotate(65 1251.164 0)"/>
    <path fill="#E9AB70" fill-rule="nonzero" d="M437.709498,93.1584292 C430.529796,93.1584292 424.709498,87.338131 424.709498,80.1584292 C424.709498,72.9787275 430.529796,67.1584292 437.709498,67.1584292 C444.889199,67.1584292 450.709498,72.9787275 450.709498,80.1584292 C450.709498,87.338131 444.889199,93.1584292 437.709498,93.1584292 Z M437.709498,91.1584292 C443.78463,91.1584292 448.709498,86.2335615 448.709498,80.1584292 C448.709498,74.083297 443.78463,69.1584292 437.709498,69.1584292 C431.634365,69.1584292 426.709498,74.083297 426.709498,80.1584292 C426.709498,86.2335615 431.634365,91.1584292 437.709498,91.1584292 Z" transform="rotate(-36 437.71 80.158)"/>
    <path fill="#E9AB70" fill-rule="nonzero" d="M700.035995,76.2680381 C692.856293,76.2680381 687.035995,70.4477399 687.035995,63.2680381 C687.035995,56.0883364 692.856293,50.2680381 700.035995,50.2680381 C707.215696,50.2680381 713.035995,56.0883364 713.035995,63.2680381 C713.035995,70.4477399 707.215696,76.2680381 700.035995,76.2680381 Z M700.035995,74.2680381 C706.111127,74.2680381 711.035995,69.3431704 711.035995,63.2680381 C711.035995,57.1929059 706.111127,52.2680381 700.035995,52.2680381 C693.960862,52.2680381 689.035995,57.1929059 689.035995,63.2680381 C689.035995,69.3431704 693.960862,74.2680381 700.035995,74.2680381 Z" transform="scale(1 -1) rotate(-10 -23.121 0)"/>
    <path fill="#E9AB70" fill-rule="nonzero" d="M668.814287,299.073714 C661.634585,299.073714 655.814287,293.253416 655.814287,286.073714 C655.814287,278.894013 661.634585,273.073714 668.814287,273.073714 C675.993988,273.073714 681.814287,278.894013 681.814287,286.073714 C681.814287,293.253416 675.993988,299.073714 668.814287,299.073714 Z M668.814287,297.073714 C674.889419,297.073714 679.814287,292.148847 679.814287,286.073714 C679.814287,279.998582 674.889419,275.073714 668.814287,275.073714 C662.739154,275.073714 657.814287,279.998582 657.814287,286.073714 C657.814287,292.148847 662.739154,297.073714 668.814287,297.073714 Z" transform="scale(1 -1) rotate(55 1218.357 0)"/>
    <path fill="#E9AB70" fill-rule="nonzero" d="M381.983025,252.983025 C374.803323,252.983025 368.983025,247.162727 368.983025,239.983025 C368.983025,232.803323 374.803323,226.983025 381.983025,226.983025 C389.162727,226.983025 394.983025,232.803323 394.983025,239.983025 C394.983025,247.162727 389.162727,252.983025 381.983025,252.983025 Z M381.983025,250.983025 C388.058157,250.983025 392.983025,246.058157 392.983025,239.983025 C392.983025,233.907893 388.058157,228.983025 381.983025,228.983025 C375.907893,228.983025 370.983025,233.907893 370.983025,239.983025 C370.983025,246.058157 375.907893,250.983025 381.983025,250.983025 Z" transform="rotate(-57 381.983 239.983)"/>
    <path fill="#E9AB70" fill-rule="nonzero" d="M538.921683,94.2288259 C531.741982,94.2288259 525.921683,88.4085277 525.921683,81.2288259 C525.921683,74.0491242 531.741982,68.2288259 538.921683,68.2288259 C546.101385,68.2288259 551.921683,74.0491242 551.921683,81.2288259 C551.921683,88.4085277 546.101385,94.2288259 538.921683,94.2288259 Z M538.921683,92.2288259 C544.996816,92.2288259 549.921683,87.3039582 549.921683,81.2288259 C549.921683,75.1536937 544.996816,70.2288259 538.921683,70.2288259 C532.846551,70.2288259 527.921683,75.1536937 527.921683,81.2288259 C527.921683,87.3039582 532.846551,92.2288259 538.921683,92.2288259 Z" transform="scale(1 -1) rotate(-75 433.062 0)"/>
    <path fill="#E9AB70" fill-rule="nonzero" d="M139.24167,124.24167 C132.061969,124.24167 126.24167,118.421372 126.24167,111.24167 C126.24167,104.061969 132.061969,98.2416703 139.24167,98.2416703 C146.421372,98.2416703 152.24167,104.061969 152.24167,111.24167 C152.24167,118.421372 146.421372,124.24167 139.24167,124.24167 Z M139.24167,122.24167 C145.316803,122.24167 150.24167,117.316803 150.24167,111.24167 C150.24167,105.166538 145.316803,100.24167 139.24167,100.24167 C133.166538,100.24167 128.24167,105.166538 128.24167,111.24167 C128.24167,117.316803 133.166538,122.24167 139.24167,122.24167 Z" transform="scale(-1 1) rotate(-11 0 1557.322)"/>
    <path fill="#F6F0E4" fill-rule="nonzero" d="M800.381976,197.381976 C793.202274,197.381976 787.381976,191.561678 787.381976,184.381976 C787.381976,177.202274 793.202274,171.381976 800.381976,171.381976 C807.561678,171.381976 813.381976,177.202274 813.381976,184.381976 C813.381976,191.561678 807.561678,197.381976 800.381976,197.381976 Z M800.381976,195.381976 C806.457108,195.381976 811.381976,190.457108 811.381976,184.381976 C811.381976,178.306844 806.457108,173.381976 800.381976,173.381976 C794.306844,173.381976 789.381976,178.306844 789.381976,184.381976 C789.381976,190.457108 794.306844,195.381976 800.381976,195.381976 Z" transform="rotate(134 800.382 184.382)"/>
    <path fill="#F6F0E4" fill-rule="nonzero" d="M521.4867,143.080115 C514.306999,143.080115 508.4867,137.259817 508.4867,130.080115 C508.4867,122.900413 514.306999,117.080115 521.4867,117.080115 C528.666402,117.080115 534.4867,122.900413 534.4867,130.080115 C534.4867,137.259817 528.666402,143.080115 521.4867,143.080115 Z M521.4867,141.080115 C527.561833,141.080115 532.4867,136.155247 532.4867,130.080115 C532.4867,124.004983 527.561833,119.080115 521.4867,119.080115 C515.411568,119.080115 510.4867,124.004983 510.4867,130.080115 C510.4867,136.155247 515.411568,141.080115 521.4867,141.080115 Z" transform="rotate(-14 521.487 130.08)"/>
    <path fill="#EEEEEE" fill-rule="nonzero" d="M773.672581,262.672581 C766.49288,262.672581 760.672581,256.852283 760.672581,249.672581 C760.672581,242.49288 766.49288,236.672581 773.672581,236.672581 C780.852283,236.672581 786.672581,242.49288 786.672581,249.672581 C786.672581,256.852283 780.852283,262.672581 773.672581,262.672581 Z M773.672581,260.672581 C779.747714,260.672581 784.672581,255.747714 784.672581,249.672581 C784.672581,243.597449 779.747714,238.672581 773.672581,238.672581 C767.597449,238.672581 762.672581,243.597449 762.672581,249.672581 C762.672581,255.747714 767.597449,260.672581 773.672581,260.672581 Z" transform="scale(1 -1) rotate(61 1197.533 0)"/>
    <path fill="#EEEEEE" fill-rule="nonzero" d="M605.98361,107.135465 C598.803908,107.135465 592.98361,101.315166 592.98361,94.1354647 C592.98361,86.955763 598.803908,81.1354647 605.98361,81.1354647 C613.163311,81.1354647 618.98361,86.955763 618.98361,94.1354647 C618.98361,101.315166 613.163311,107.135465 605.98361,107.135465 Z M605.98361,105.135465 C612.058742,105.135465 616.98361,100.210597 616.98361,94.1354647 C616.98361,88.0603325 612.058742,83.1354647 605.98361,83.1354647 C599.908478,83.1354647 594.98361,88.0603325 594.98361,94.1354647 C594.98361,100.210597 599.908478,105.135465 605.98361,105.135465 Z" transform="rotate(-19 605.984 94.135)"/>
    <path fill="#EEEEEE" fill-rule="nonzero" d="M605.98361,297.046068 C598.803908,297.046068 592.98361,291.22577 592.98361,284.046068 C592.98361,276.866366 598.803908,271.046068 605.98361,271.046068 C613.163311,271.046068 618.98361,276.866366 618.98361,284.046068 C618.98361,291.22577 613.163311,297.046068 605.98361,297.046068 Z M605.98361,295.046068 C612.058742,295.046068 616.98361,290.1212 616.98361,284.046068 C616.98361,277.970936 612.058742,273.046068 605.98361,273.046068 C599.908478,273.046068 594.98361,277.970936 594.98361,284.046068 C594.98361,290.1212 599.908478,295.046068 605.98361,295.046068 Z" transform="rotate(157 605.984 284.046)"/>
    <path fill="#EEEEEE" fill-rule="nonzero" d="M115.718598,69.5766802 C108.538897,69.5766802 102.718598,63.7563819 102.718598,56.5766802 C102.718598,49.3969784 108.538897,43.5766802 115.718598,43.5766802 C122.8983,43.5766802 128.718598,49.3969784 128.718598,56.5766802 C128.718598,63.7563819 122.8983,69.5766802 115.718598,69.5766802 Z M115.718598,67.5766802 C121.793731,67.5766802 126.718598,62.6518124 126.718598,56.5766802 C126.718598,50.5015479 121.793731,45.5766802 115.718598,45.5766802 C109.643466,45.5766802 104.718598,50.5015479 104.718598,56.5766802 C104.718598,62.6518124 109.643466,67.5766802 115.718598,67.5766802 Z" transform="rotate(7 115.719 56.577)"/>
    <path fill="#858585" fill-rule="nonzero" d="M840.00127,227.476017 C832.821568,227.476017 827.00127,221.655719 827.00127,214.476017 C827.00127,207.296315 832.821568,201.476017 840.00127,201.476017 C847.180972,201.476017 853.00127,207.296315 853.00127,214.476017 C853.00127,221.655719 847.180972,227.476017 840.00127,227.476017 Z M840.00127,225.476017 C846.076402,225.476017 851.00127,220.551149 851.00127,214.476017 C851.00127,208.400885 846.076402,203.476017 840.00127,203.476017 C833.926138,203.476017 829.00127,208.400885 829.00127,214.476017 C829.00127,220.551149 833.926138,225.476017 840.00127,225.476017 Z" transform="scale(-1 1) rotate(-33 0 3050.273)"/>
    <path fill="#858585" fill-rule="nonzero" d="M694.553926,334.784359 C687.374224,334.784359 681.553926,328.964061 681.553926,321.784359 C681.553926,314.604657 687.374224,308.784359 694.553926,308.784359 C701.733628,308.784359 707.553926,314.604657 707.553926,321.784359 C707.553926,328.964061 701.733628,334.784359 694.553926,334.784359 Z M694.553926,332.784359 C700.629058,332.784359 705.553926,327.859491 705.553926,321.784359 C705.553926,315.709227 700.629058,310.784359 694.553926,310.784359 C688.478794,310.784359 683.553926,315.709227 683.553926,321.784359 C683.553926,327.859491 688.478794,332.784359 694.553926,332.784359 Z" transform="rotate(-142 694.554 321.784)"/>
    <path fill="#5BC1BF" fill-rule="nonzero" d="M716.834459,144.305615 C709.654758,144.305615 703.834459,138.485317 703.834459,131.305615 C703.834459,124.125913 709.654758,118.305615 716.834459,118.305615 C724.014161,118.305615 729.834459,124.125913 729.834459,131.305615 C729.834459,138.485317 724.014161,144.305615 716.834459,144.305615 Z M716.834459,142.305615 C722.909592,142.305615 727.834459,137.380747 727.834459,131.305615 C727.834459,125.230483 722.909592,120.305615 716.834459,120.305615 C710.759327,120.305615 705.834459,125.230483 705.834459,131.305615 C705.834459,137.380747 710.759327,142.305615 716.834459,142.305615 Z" transform="scale(1 -1) rotate(-50 435.249 0)"/>
    <path fill="#858585" fill-rule="nonzero" d="M321.305826,70.8215502 C314.126124,70.8215502 308.305826,65.0012519 308.305826,57.8215502 C308.305826,50.6418484 314.126124,44.8215502 321.305826,44.8215502 C328.485528,44.8215502 334.305826,50.6418484 334.305826,57.8215502 C334.305826,65.0012519 328.485528,70.8215502 321.305826,70.8215502 Z M321.305826,68.8215502 C327.380958,68.8215502 332.305826,63.8966824 332.305826,57.8215502 C332.305826,51.7464179 327.380958,46.8215502 321.305826,46.8215502 C315.230694,46.8215502 310.305826,51.7464179 310.305826,57.8215502 C310.305826,63.8966824 315.230694,68.8215502 321.305826,68.8215502 Z" transform="rotate(11 321.306 57.822)"/>
    <path fill="#5BC1BF" fill-rule="nonzero" d="M230.619409,157.662266 C223.439707,157.662266 217.619409,151.841968 217.619409,144.662266 C217.619409,137.482564 223.439707,131.662266 230.619409,131.662266 C237.799111,131.662266 243.619409,137.482564 243.619409,144.662266 C243.619409,151.841968 237.799111,157.662266 230.619409,157.662266 Z M230.619409,155.662266 C236.694541,155.662266 241.619409,150.737398 241.619409,144.662266 C241.619409,138.587134 236.694541,133.662266 230.619409,133.662266 C224.544277,133.662266 219.619409,138.587134 219.619409,144.662266 C219.619409,150.737398 224.544277,155.662266 230.619409,155.662266 Z" transform="rotate(-160 230.62 144.662)"/>
    <path fill="#1DBB7D" fill-rule="nonzero" d="M731.192662,209.227018 L754.670729,209.227018 L743.378693,190.915153 L731.192662,209.227018 Z M744.253752,188.61062 L757.253632,209.692033 C757.647905,210.33141 757.175556,211.145603 756.410353,211.145603 L729.381386,211.145603 C728.601062,211.145603 728.131237,210.302403 728.555951,209.664187 L742.585038,188.582775 C742.980887,187.987936 743.879014,188.002922 744.253752,188.61062 Z" transform="rotate(-56 742.896 199.646)"/>
    <path fill="#5BC1BF" fill-rule="nonzero" d="M626.908793,328.999311 L650.386859,328.999311 L639.094824,310.687446 L626.908793,328.999311 Z M639.969882,308.382913 L652.969763,329.464326 C653.364035,330.103703 652.891687,330.917896 652.126484,330.917896 L625.097517,330.917896 C624.317193,330.917896 623.847367,330.074696 624.272082,329.43648 L638.301169,308.355068 C638.697017,307.760229 639.595145,307.775216 639.969882,308.382913 Z" transform="scale(1 -1) rotate(-18 -1378.113 0)"/>
    <path fill="#5BC1BF" fill-rule="nonzero" d="M478.944012,97.1675395 L502.422079,97.1675395 L491.130043,78.8556742 L478.944012,97.1675395 Z M492.005102,76.5511417 L505.004982,97.6325541 C505.399255,98.2719313 504.926906,99.0861246 504.161703,99.0861246 L477.132736,99.0861246 C476.352412,99.0861246 475.882587,98.2429242 476.307301,97.6047086 L490.336388,76.5232962 C490.732237,75.928457 491.630364,75.9434439 492.005102,76.5511417 Z" transform="rotate(60 490.647 87.586)"/>
    <path fill="#1DBB7D" fill-rule="nonzero" d="M89.7347787,207.542784 L113.212845,207.542784 L101.92081,189.230918 L89.7347787,207.542784 Z M102.795868,186.926386 L115.795748,208.007798 C116.190021,208.647175 115.717673,209.461369 114.95247,209.461369 L87.9235029,209.461369 C87.1431789,209.461369 86.6733532,208.618168 87.0980678,207.979953 L101.127154,186.89854 C101.523003,186.303701 102.421131,186.318688 102.795868,186.926386 Z" transform="rotate(-86 101.438 197.961)"/>
    <path fill="#E9AB70" fill-rule="nonzero" d="M879.068675,246.129011 L902.546742,246.129011 L891.254706,227.817145 L879.068675,246.129011 Z M892.129765,225.512613 L905.129645,246.594025 C905.523918,247.233403 905.051569,248.047596 904.286366,248.047596 L877.2574,248.047596 C876.477075,248.047596 876.00725,247.204395 876.431964,246.56618 L890.461051,225.484767 C890.8569,224.889928 891.755027,224.904915 892.129765,225.512613 Z" transform="scale(-1 1) rotate(-51 0 2104.09)"/>
    <path fill="#E9AB70" fill-rule="nonzero" d="M826.991353,320.686686 L850.46942,320.686686 L839.177384,302.374821 L826.991353,320.686686 Z M840.052443,300.070288 L853.052323,321.151701 C853.446596,321.791078 852.974248,322.605271 852.209045,322.605271 L825.180078,322.605271 C824.399754,322.605271 823.929928,321.762071 824.354643,321.123855 L838.383729,300.042443 C838.779578,299.447604 839.677705,299.462591 840.052443,300.070288 Z" transform="rotate(10 838.695 311.105)"/>
    <path fill="#E9AB70" fill-rule="nonzero" d="M821.953727,142.96031 L845.431794,142.96031 L834.139758,124.648444 L821.953727,142.96031 Z M835.014817,122.343912 L848.014697,143.425324 C848.40897,144.064701 847.936621,144.878895 847.171418,144.878895 L820.142451,144.878895 C819.362127,144.878895 818.892302,144.035694 819.317016,143.397479 L833.346103,122.316066 C833.741952,121.721227 834.640079,121.736214 835.014817,122.343912 Z" transform="rotate(-60 833.657 133.379)"/>
    <path fill="#5BC1BF" fill-rule="nonzero" d="M891.669013,400.080672 L915.147079,400.080672 L903.855044,381.768807 L891.669013,400.080672 Z M904.730102,379.464275 L917.729982,400.545687 C918.124255,401.185064 917.651907,401.999257 916.886704,401.999257 L889.857737,401.999257 C889.077413,401.999257 888.607587,401.156057 889.032302,400.517841 L903.061388,379.436429 C903.457237,378.84159 904.355365,378.856577 904.730102,379.464275 Z" transform="scale(-1 1) rotate(50 0 -1546.789)"/>
    <path fill="#E9AB70" fill-rule="nonzero" d="M634.515487,218.841903 L657.993554,218.841903 L646.701518,200.530038 L634.515487,218.841903 Z M647.576577,198.225506 L660.576457,219.306918 C660.97073,219.946295 660.498382,220.760488 659.733179,220.760488 L632.704212,220.760488 C631.923888,220.760488 631.454062,219.917288 631.878777,219.279072 L645.907863,198.19766 C646.303712,197.602821 647.201839,197.617808 647.576577,198.225506 Z" transform="scale(1 -1) rotate(2 12634.744 0)"/>
    <path fill="#E9AB70" fill-rule="nonzero" d="M447.230891,215.041135 L470.708957,215.041135 L459.416922,196.72927 L447.230891,215.041135 Z M460.29198,194.424737 L473.29186,215.50615 C473.686133,216.145527 473.213785,216.95972 472.448582,216.95972 L445.419615,216.95972 C444.639291,216.95972 444.169465,216.11652 444.59418,215.478304 L458.623266,194.396892 C459.019115,193.802053 459.917242,193.81704 460.29198,194.424737 Z" transform="scale(1 -1) rotate(-76 195.958 0)"/>
    <path fill="#5BC1BF" fill-rule="nonzero" d="M893.207468,184.126474 L916.685534,184.126474 L905.393499,165.814609 L893.207468,184.126474 Z M906.268557,163.510076 L919.268438,184.591489 C919.66271,185.230866 919.190362,186.045059 918.425159,186.045059 L891.396192,186.045059 C890.615868,186.045059 890.146042,185.201859 890.570757,184.563643 L904.599844,163.482231 C904.995692,162.887392 905.89382,162.902379 906.268557,163.510076 Z" transform="rotate(-127 904.91 174.545)"/>
    <path fill="#E9AB70" fill-rule="nonzero" d="M273.881063,137.40344 L297.35913,137.40344 L286.067094,119.091574 L273.881063,137.40344 Z M286.942153,116.787042 L299.942033,137.868454 C300.336306,138.507832 299.863957,139.322025 299.098755,139.322025 L272.069788,139.322025 C271.289464,139.322025 270.819638,138.478824 271.244352,137.840609 L285.273439,116.759196 C285.669288,116.164357 286.567415,116.179344 286.942153,116.787042 Z" transform="scale(-1 1) rotate(76 0 -237.71)"/>
    <path fill="#E9AB70" fill-rule="nonzero" d="M208.532481,106.01403 L232.010547,106.01403 L220.718512,87.7021647 L208.532481,106.01403 Z M221.59357,85.3976322 L234.593451,106.479045 C234.987723,107.118422 234.515375,107.932615 233.750172,107.932615 L206.721205,107.932615 C205.940881,107.932615 205.471055,107.089415 205.89577,106.451199 L219.924857,85.3697867 C220.320705,84.7749475 221.218833,84.7899344 221.59357,85.3976322 Z" transform="rotate(102 220.236 96.433)"/>
    <path fill="#E9AB70" fill-rule="nonzero" d="M88.303559,99.9132705 L111.781626,99.9132705 L100.48959,81.6014052 L88.303559,99.9132705 Z M101.364648,79.2968727 L114.364529,100.378285 C114.758802,101.017662 114.286453,101.831856 113.52125,101.831856 L86.4922832,101.831856 C85.7119592,101.831856 85.2421335,100.988655 85.6668481,100.35044 L99.6959347,79.2690272 C100.091783,78.6741881 100.989911,78.6891749 101.364648,79.2968727 Z" transform="scale(1 -1) rotate(89 191.93 0)"/>
    <path fill="#E9AB70" fill-rule="nonzero" d="M45.8224931,219.181748 L69.3005596,219.181748 L58.0085242,200.869883 L45.8224931,219.181748 Z M58.8835826,198.56535 L71.8834629,219.646762 C72.2777357,220.28614 71.8053873,221.100333 71.0401843,221.100333 L44.0112174,221.100333 C43.2308933,221.100333 42.7610677,220.257133 43.1857822,219.618917 L57.2148689,198.537505 C57.6107176,197.942665 58.508845,197.957652 58.8835826,198.56535 Z" transform="scale(1 -1) rotate(41 618.127 0)"/>
    <path fill="#F6F0E4" fill-rule="nonzero" d="M312.753731,27.3013464 L336.231797,27.3013464 L324.939762,8.98948107 L312.753731,27.3013464 Z M325.81482,6.68494854 L338.8147,27.766361 C339.208973,28.4057382 338.736625,29.2199314 337.971422,29.2199314 L310.942455,29.2199314 C310.162131,29.2199314 309.692305,28.3767311 310.11702,27.7385155 L324.146106,6.65710305 C324.541955,6.06226391 325.440083,6.07725077 325.81482,6.68494854 Z" transform="scale(1 -1) rotate(5 730.31 0)"/>
    <path fill="#F6F0E4" fill-rule="nonzero" d="M159.796842,164.081415 L183.274908,164.081415 L171.982873,145.76955 L159.796842,164.081415 Z M172.857931,143.465017 L185.857811,164.54643 C186.252084,165.185807 185.779736,166 185.014533,166 L157.985566,166 C157.205242,166 156.735416,165.1568 157.160131,164.518584 L171.189217,143.437172 C171.585066,142.842332 172.483193,142.857319 172.857931,143.465017 Z"/>
    <path fill="#F6F0E4" fill-rule="nonzero" d="M114.557939,251.004322 L138.036005,251.004322 L126.74397,232.692456 L114.557939,251.004322 Z M127.619028,230.387924 L140.618909,251.469336 C141.013181,252.108713 140.540833,252.922907 139.77563,252.922907 L112.746663,252.922907 C111.966339,252.922907 111.496513,252.079706 111.921228,251.441491 L125.950315,230.360078 C126.346163,229.765239 127.244291,229.780226 127.619028,230.387924 Z" transform="scale(-1 1) rotate(88 0 110.676)"/>
    <path fill="#B6E7E6" fill-rule="nonzero" d="M604.379241,234.923276 C597.199539,234.923276 591.379241,229.102978 591.379241,221.923276 C591.379241,214.743574 597.199539,208.923276 604.379241,208.923276 C611.558942,208.923276 617.379241,214.743574 617.379241,221.923276 C617.379241,229.102978 611.558942,234.923276 604.379241,234.923276 Z M604.379241,232.923276 C610.454373,232.923276 615.379241,227.998408 615.379241,221.923276 C615.379241,215.848144 610.454373,210.923276 604.379241,210.923276 C598.304108,210.923276 593.379241,215.848144 593.379241,221.923276 C593.379241,227.998408 598.304108,232.923276 604.379241,232.923276 Z" transform="scale(1 -1) rotate(68 933.394 0)"/>
    <path fill="#EEEEEE" fill-rule="nonzero" d="M502.180242,246.003422 L525.658309,246.003422 L514.366273,227.691557 L502.180242,246.003422 Z M515.241332,225.387024 L528.241212,246.468437 C528.635485,247.107814 528.163136,247.922007 527.397933,247.922007 L500.368966,247.922007 C499.588642,247.922007 499.118817,247.078807 499.543531,246.440591 L513.572618,225.359179 C513.968467,224.76434 514.866594,224.779327 515.241332,225.387024 Z" transform="rotate(-11 513.883 236.422)"/>
    <path fill="#EEEEEE" fill-rule="nonzero" d="M798.294186,401.74742 L821.772253,401.74742 L810.480217,383.435555 L798.294186,401.74742 Z M811.355276,381.131022 L824.355156,402.212435 C824.749429,402.851812 824.27708,403.666005 823.511877,403.666005 L796.48291,403.666005 C795.702586,403.666005 795.232761,402.822805 795.657475,402.184589 L809.686562,381.103177 C810.082411,380.508338 810.980538,380.523325 811.355276,381.131022 Z" transform="rotate(135 809.997 392.166)"/>
    <path fill="#EEEEEE" fill-rule="nonzero" d="M74.1238795,147.035463 L97.601946,147.035463 L86.3099105,128.723598 L74.1238795,147.035463 Z M87.184969,126.419065 L100.184849,147.500478 C100.579122,148.139855 100.106774,148.954048 99.3415707,148.954048 L72.3126037,148.954048 C71.5322797,148.954048 71.0624541,148.110848 71.4871686,147.472632 L85.5162553,126.39122 C85.912104,125.796381 86.8102313,125.811367 87.184969,126.419065 Z" transform="rotate(-169 85.827 137.454)"/>
    <path fill="#858585" fill-rule="nonzero" d="M764.743956,363.301412 L788.222022,363.301412 L776.929987,344.989547 L764.743956,363.301412 Z M777.805045,342.685014 L790.804925,363.766427 C791.199198,364.405804 790.72685,365.219997 789.961647,365.219997 L762.93268,365.219997 C762.152356,365.219997 761.68253,364.376797 762.107245,363.738581 L776.136331,342.657169 C776.53218,342.06233 777.430308,342.077317 777.805045,342.685014 Z" transform="rotate(-175 776.447 353.72)"/>
    <path fill="#858585" fill-rule="nonzero" d="M773.126279,133.7219 L796.604345,133.7219 L785.31231,115.410035 L773.126279,133.7219 Z M786.187368,113.105502 L799.187249,134.186915 C799.581521,134.826292 799.109173,135.640485 798.34397,135.640485 L771.315003,135.640485 C770.534679,135.640485 770.064853,134.797285 770.489568,134.159069 L784.518655,113.077657 C784.914503,112.482818 785.812631,112.497805 786.187368,113.105502 Z" transform="rotate(-63 784.83 124.14)"/>
    <path fill="#858585" fill-rule="nonzero" d="M559.750895,261.175617 L583.228961,261.175617 L571.936926,242.863751 L559.750895,261.175617 Z M572.811984,240.559219 L585.811864,261.640631 C586.206137,262.280009 585.733789,263.094202 584.968586,263.094202 L557.939619,263.094202 C557.159295,263.094202 556.689469,262.251002 557.114184,261.612786 L571.14327,240.531373 C571.539119,239.936534 572.437247,239.951521 572.811984,240.559219 Z" transform="scale(-1 1) rotate(-19 0 3666.469)"/>
    <path fill="#B6E7E6" fill-rule="nonzero" d="M23.7660899,110.360512 L47.2441564,110.360512 L35.952121,92.0486469 L23.7660899,110.360512 Z M36.8271794,89.7441143 L49.8270597,110.825527 C50.2213325,111.464904 49.7489841,112.279097 48.9837811,112.279097 L21.9548142,112.279097 C21.1744901,112.279097 20.7046645,111.435897 21.129379,110.797681 L35.1584657,89.7162689 C35.5543144,89.1214297 36.4524418,89.1364166 36.8271794,89.7441143 Z" transform="rotate(-13 35.47 100.78)"/>
    <rect width="38" height="2" x="980.546" y="348.234" fill="#1DBB7D" opacity=".84" transform="rotate(-30 999.546 349.234)"/>
    <rect width="38" height="2" x="799.786" y="336.333" fill="#1DBB7D" opacity=".84" transform="rotate(-121 818.786 337.333)"/>
    <rect width="38" height="2" x="708.934" y="275.069" fill="#1DBB7D" opacity=".84" transform="scale(-1 1) rotate(-42 0 2172.403)"/>
    <rect width="38" height="2" x="24.155" y="228.965" fill="#1DBB7D" opacity=".84" transform="rotate(-13 43.155 229.965)"/>
    <rect width="38" height="2" x="43.257" y="45.717" fill="#1DBB7D" opacity=".84" transform="rotate(165 62.257 46.717)"/>
    <rect width="38" height="2" x="895.91" y="259.691" fill="#B6E7E6" opacity=".84" transform="scale(-1 1) rotate(-50 0 2222.723)"/>
    <rect width="38" height="2" x="361.302" y="49.694" fill="#B6E7E6" opacity=".84" transform="scale(1 -1) rotate(65 459.876 0)"/>
    <rect width="38" height="2" x="87.719" y="262.461" fill="#B6E7E6" opacity=".84" transform="scale(1 -1) rotate(-66 -298.975 0)"/>
    <rect width="38" height="2" x="510.463" y="187.3" fill="#E9AB70" opacity=".84" transform="rotate(-53 529.463 188.3)"/>
    <rect width="38" height="2" x="286.075" y="269.79" fill="#1AC68B" opacity=".84" transform="scale(-1 1) rotate(-29 0 1450.428)"/>
    <rect width="38" height="2" x="220.42" y="51.963" fill="#E9AB70" opacity=".84" transform="rotate(156 239.42 52.963)"/>
    <rect width="38" height="2" x="663.883" y="177.232" fill="#F6F0E4" opacity=".84" transform="scale(-1 1) rotate(-75 0 1068.183)"/>
    <rect width="38" height="2" x="138.541" y="41.486" fill="#F6F0E4" opacity=".84" transform="rotate(142 157.541 42.486)"/>
    <rect width="38" height="2" x="978.323" y="240.023" fill="#EEEEEE" opacity=".84" transform="rotate(-94 997.323 241.023)"/>
    <rect width="38" height="2" x="713.159" y="375.882" fill="#EEEEEE" opacity=".84" transform="scale(1 -1) rotate(-25 -967.844 0)"/>
    <rect width="38" height="2" x="726.19" y="77.958" fill="#EEEEEE" opacity=".84" transform="rotate(-170 745.19 78.958)"/>
    <rect width="38" height="2" x="357.755" y="77.413" fill="#EEEEEE" opacity=".84" transform="rotate(-103 376.755 78.413)"/>
    <rect width="38" height="2" x="301.445" y="204.479" fill="#5BC1BF" opacity=".84" transform="rotate(-123 320.445 205.48)"/>
    <rect width="38" height="2" x="714.439" y="336.745" fill="#858585" opacity=".84" transform="rotate(-56 733.44 337.745)"/>
    <rect width="38" height="2" x="819.223" y="378" fill="#858585" opacity=".84" transform="rotate(96 838.223 379)"/>
    <rect width="38" height="2" x="477.097" y="41.855" fill="#858585" opacity=".84" transform="rotate(-173 496.097 42.855)"/>
    <rect width="38" height="2" x="388.366" y="197.69" fill="#858585" opacity=".84" transform="scale(-1 1) rotate(-46 0 1158.383)"/>
    <rect width="38" height="2" x="43.943" y="124.276" fill="#858585" opacity=".84" transform="rotate(-159 62.943 125.276)"/>
    <path fill="#1DBB7D" fill-rule="nonzero" d="M429.683244,142.805615 C429.130959,142.805615 428.683244,142.31526 428.683244,141.710377 L428.683244,120.900853 C428.683244,120.29597 429.130959,119.805615 429.683244,119.805615 L450.683244,119.805615 C451.235529,119.805615 451.683244,120.29597 451.683244,120.900853 L451.683244,141.710377 C451.683244,142.31526 451.235529,142.805615 450.683244,142.805615 L429.683244,142.805615 Z M449.683244,140.615139 L449.683244,121.996091 L430.683244,121.996091 L430.683244,140.615139 L449.683244,140.615139 Z" transform="scale(1 -1) rotate(24 1057.928 0)"/>
    <path fill="#1DBB7D" fill-rule="nonzero" d="M949.47059,260.47059 C948.918305,260.47059 948.47059,259.980235 948.47059,259.375352 L948.47059,238.565828 C948.47059,237.960945 948.918305,237.47059 949.47059,237.47059 L970.47059,237.47059 C971.022875,237.47059 971.47059,237.960945 971.47059,238.565828 L971.47059,259.375352 C971.47059,259.980235 971.022875,260.47059 970.47059,260.47059 L949.47059,260.47059 Z M969.47059,258.280114 L969.47059,239.661066 L950.47059,239.661066 L950.47059,258.280114 L969.47059,258.280114 Z" transform="rotate(158 959.97 248.97)"/>
    <path fill="#1DBB7D" fill-rule="nonzero" d="M776.970227,99.9885295 C776.417942,99.9885295 775.970227,99.4981747 775.970227,98.8932914 L775.970227,78.0837676 C775.970227,77.4788843 776.417942,76.9885295 776.970227,76.9885295 L797.970227,76.9885295 C798.522512,76.9885295 798.970227,77.4788843 798.970227,78.0837676 L798.970227,98.8932914 C798.970227,99.4981747 798.522512,99.9885295 797.970227,99.9885295 L776.970227,99.9885295 Z M796.970227,97.7980533 L796.970227,79.1790057 L777.970227,79.1790057 L777.970227,97.7980533 L796.970227,97.7980533 Z" transform="scale(-1 1) rotate(-83 0 978.562)"/>
    <path fill="#1DBB7D" fill-rule="nonzero" d="M459.452493,28.5069278 C458.900208,28.5069278 458.452493,28.016573 458.452493,27.4116897 L458.452493,6.60216589 C458.452493,5.99728259 458.900208,5.5069278 459.452493,5.5069278 L480.452493,5.5069278 C481.004778,5.5069278 481.452493,5.99728259 481.452493,6.60216589 L481.452493,27.4116897 C481.452493,28.016573 481.004778,28.5069278 480.452493,28.5069278 L459.452493,28.5069278 Z M479.452493,26.3164516 L479.452493,7.69740399 L460.452493,7.69740399 L460.452493,26.3164516 L479.452493,26.3164516 Z" transform="scale(-1 1) rotate(-15 0 3586.65)"/>
    <path fill="#F6F0E4" fill-rule="nonzero" d="M269.579031,310.139486 C269.026747,310.139486 268.579031,309.649131 268.579031,309.044248 L268.579031,288.234724 C268.579031,287.62984 269.026747,287.139486 269.579031,287.139486 L290.579031,287.139486 C291.131316,287.139486 291.579031,287.62984 291.579031,288.234724 L291.579031,309.044248 C291.579031,309.649131 291.131316,310.139486 290.579031,310.139486 L269.579031,310.139486 Z M289.579031,307.949009 L289.579031,289.329962 L270.579031,289.329962 L270.579031,307.949009 L289.579031,307.949009 Z" transform="scale(-1 1) rotate(37 0 -538.429)"/>
    <path fill="#1DBB7D" fill-rule="nonzero" d="M207.47163,26.7868078 C206.919345,26.7868078 206.47163,26.296453 206.47163,25.6915697 L206.47163,4.88204589 C206.47163,4.27716259 206.919345,3.78680779 207.47163,3.78680779 L228.47163,3.78680779 C229.023915,3.78680779 229.47163,4.27716259 229.47163,4.88204589 L229.47163,25.6915697 C229.47163,26.296453 229.023915,26.7868078 228.47163,26.7868078 L207.47163,26.7868078 Z M227.47163,24.5963316 L227.47163,5.97728398 L208.47163,5.97728398 L208.47163,24.5963316 L227.47163,24.5963316 Z" transform="scale(-1 1) rotate(-74 0 304.545)"/>
    <path fill="#B6E7E6" fill-rule="nonzero" d="M347.008614,28.088853 C346.456329,28.088853 346.008614,27.5984982 346.008614,26.9936149 L346.008614,6.18409112 C346.008614,5.57920782 346.456329,5.08885302 347.008614,5.08885302 L368.008614,5.08885302 C368.560899,5.08885302 369.008614,5.57920782 369.008614,6.18409112 L369.008614,26.9936149 C369.008614,27.5984982 368.560899,28.088853 368.008614,28.088853 L347.008614,28.088853 Z M367.008614,25.8983768 L367.008614,7.27932921 L348.008614,7.27932921 L348.008614,25.8983768 L367.008614,25.8983768 Z" transform="scale(-1 1) rotate(-45 0 879.691)"/>
    <path fill="#B6E7E6" fill-rule="nonzero" d="M44.3313041,285.595837 C43.7790194,285.595837 43.3313041,285.105483 43.3313041,284.500599 L43.3313041,263.691076 C43.3313041,263.086192 43.7790194,262.595837 44.3313041,262.595837 L65.3313041,262.595837 C65.8835889,262.595837 66.3313041,263.086192 66.3313041,263.691076 L66.3313041,284.500599 C66.3313041,285.105483 65.8835889,285.595837 65.3313041,285.595837 L44.3313041,285.595837 Z M64.3313041,283.405361 L64.3313041,264.786314 L45.3313041,264.786314 L45.3313041,283.405361 L64.3313041,283.405361 Z" transform="rotate(-153 54.831 274.096)"/>
    <path fill="#E9AB70" fill-rule="nonzero" d="M962.133437,321.133437 C961.581153,321.133437 961.133437,320.643082 961.133437,320.038199 L961.133437,299.228675 C961.133437,298.623792 961.581153,298.133437 962.133437,298.133437 L983.133437,298.133437 C983.685722,298.133437 984.133437,298.623792 984.133437,299.228675 L984.133437,320.038199 C984.133437,320.643082 983.685722,321.133437 983.133437,321.133437 L962.133437,321.133437 Z M982.133437,318.942961 L982.133437,300.323913 L963.133437,300.323913 L963.133437,318.942961 L982.133437,318.942961 Z" transform="rotate(-151 972.633 309.633)"/>
    <path fill="#E9AB70" fill-rule="nonzero" d="M250.204352,251.152469 C249.652067,251.152469 249.204352,250.662114 249.204352,250.057231 L249.204352,229.247707 C249.204352,228.642824 249.652067,228.152469 250.204352,228.152469 L271.204352,228.152469 C271.756637,228.152469 272.204352,228.642824 272.204352,229.247707 L272.204352,250.057231 C272.204352,250.662114 271.756637,251.152469 271.204352,251.152469 L250.204352,251.152469 Z M270.204352,248.961993 L270.204352,230.342945 L251.204352,230.342945 L251.204352,248.961993 L270.204352,248.961993 Z" transform="scale(-1 1) rotate(-48 0 825.204)"/>
    <path fill="#E9AB70" fill-rule="nonzero" d="M612.760979,167.760979 C612.208694,167.760979 611.760979,167.270624 611.760979,166.665741 L611.760979,145.856217 C611.760979,145.251334 612.208694,144.760979 612.760979,144.760979 L633.760979,144.760979 C634.313264,144.760979 634.760979,145.251334 634.760979,145.856217 L634.760979,166.665741 C634.760979,167.270624 634.313264,167.760979 633.760979,167.760979 L612.760979,167.760979 Z M632.760979,165.570503 L632.760979,146.951455 L613.760979,146.951455 L613.760979,165.570503 L632.760979,165.570503 Z" transform="scale(1 -1) rotate(44 1010.02 0)"/>
    <path fill="#F6F0E4" fill-rule="nonzero" d="M484.756532,187.421693 C484.204247,187.421693 483.756532,186.931339 483.756532,186.326455 L483.756532,165.516932 C483.756532,164.912048 484.204247,164.421693 484.756532,164.421693 L505.756532,164.421693 C506.308816,164.421693 506.756532,164.912048 506.756532,165.516932 L506.756532,186.326455 C506.756532,186.931339 506.308816,187.421693 505.756532,187.421693 L484.756532,187.421693 Z M504.756532,185.231217 L504.756532,166.61217 L485.756532,166.61217 L485.756532,185.231217 L504.756532,185.231217 Z" transform="rotate(173 495.257 175.922)"/>
    <path fill="#F6F0E4" fill-rule="nonzero" d="M327.563226,178.526434 C327.010941,178.526434 326.563226,178.036079 326.563226,177.431196 L326.563226,156.621672 C326.563226,156.016789 327.010941,155.526434 327.563226,155.526434 L348.563226,155.526434 C349.115511,155.526434 349.563226,156.016789 349.563226,156.621672 L349.563226,177.431196 C349.563226,178.036079 349.115511,178.526434 348.563226,178.526434 L327.563226,178.526434 Z M347.563226,176.335958 L347.563226,157.71691 L328.563226,157.71691 L328.563226,176.335958 L347.563226,176.335958 Z" transform="rotate(-54 338.063 167.026)"/>
    <path fill="#B6E7E6" fill-rule="nonzero" d="M97.6382612,181.213944 C97.0859764,181.213944 96.6382612,180.723589 96.6382612,180.118706 L96.6382612,159.309182 C96.6382612,158.704299 97.0859764,158.213944 97.6382612,158.213944 L118.638261,158.213944 C119.190546,158.213944 119.638261,158.704299 119.638261,159.309182 L119.638261,180.118706 C119.638261,180.723589 119.190546,181.213944 118.638261,181.213944 L97.6382612,181.213944 Z M117.638261,179.023468 L117.638261,160.40442 L98.6382612,160.40442 L98.6382612,179.023468 L117.638261,179.023468 Z" transform="scale(1 -1) rotate(-46 -291.683 0)"/>
    <path fill="#EEEEEE" fill-rule="nonzero" d="M912.226746,222.884389 C911.674461,222.884389 911.226746,222.394034 911.226746,221.789151 L911.226746,200.979627 C911.226746,200.374744 911.674461,199.884389 912.226746,199.884389 L933.226746,199.884389 C933.779031,199.884389 934.226746,200.374744 934.226746,200.979627 L934.226746,221.789151 C934.226746,222.394034 933.779031,222.884389 933.226746,222.884389 L912.226746,222.884389 Z M932.226746,220.693913 L932.226746,202.074865 L913.226746,202.074865 L913.226746,220.693913 L932.226746,220.693913 Z" transform="rotate(-56 922.727 211.384)"/>
    <path fill="#EEEEEE" fill-rule="nonzero" d="M657.350305,368.9614 C656.79802,368.9614 656.350305,368.471046 656.350305,367.866162 L656.350305,347.056639 C656.350305,346.451755 656.79802,345.9614 657.350305,345.9614 L678.350305,345.9614 C678.90259,345.9614 679.350305,346.451755 679.350305,347.056639 L679.350305,367.866162 C679.350305,368.471046 678.90259,368.9614 678.350305,368.9614 L657.350305,368.9614 Z M677.350305,366.770924 L677.350305,348.151877 L658.350305,348.151877 L658.350305,366.770924 L677.350305,366.770924 Z" transform="rotate(2 667.85 357.461)"/>
    <path fill="#B6E7E6" fill-rule="nonzero" d="M262.606556,195.488573 C262.054271,195.488573 261.606556,194.998219 261.606556,194.393335 L261.606556,173.583812 C261.606556,172.978928 262.054271,172.488573 262.606556,172.488573 L283.606556,172.488573 C284.158841,172.488573 284.606556,172.978928 284.606556,173.583812 L284.606556,194.393335 C284.606556,194.998219 284.158841,195.488573 283.606556,195.488573 L262.606556,195.488573 Z M282.606556,193.298097 L282.606556,174.67905 L263.606556,174.67905 L263.606556,193.298097 L282.606556,193.298097 Z" transform="scale(1 -1) rotate(8 2904.266 0)"/>
    <path fill="#EEEEEE" fill-rule="nonzero" d="M569.321144,185.80243 C568.768859,185.80243 568.321144,185.312075 568.321144,184.707192 L568.321144,163.897668 C568.321144,163.292784 568.768859,162.80243 569.321144,162.80243 L590.321144,162.80243 C590.873428,162.80243 591.321144,163.292784 591.321144,163.897668 L591.321144,184.707192 C591.321144,185.312075 590.873428,185.80243 590.321144,185.80243 L569.321144,185.80243 Z M589.321144,183.611954 L589.321144,164.992906 L570.321144,164.992906 L570.321144,183.611954 L589.321144,183.611954 Z" transform="rotate(-117 579.821 174.302)"/>
    <path fill="#EEEEEE" fill-rule="nonzero" d="M5.10801005,183.79378 C4.5557253,183.79378 4.10801005,183.303425 4.10801005,182.698542 L4.10801005,161.889018 C4.10801005,161.284135 4.5557253,160.79378 5.10801005,160.79378 L26.10801,160.79378 C26.6602948,160.79378 27.10801,161.284135 27.10801,161.889018 L27.10801,182.698542 C27.10801,183.303425 26.6602948,183.79378 26.10801,183.79378 L5.10801005,183.79378 Z M25.10801,181.603304 L25.10801,162.984256 L6.10801005,162.984256 L6.10801005,181.603304 L25.10801,181.603304 Z" transform="rotate(65 15.608 172.294)"/>
    <path fill="#858585" fill-rule="nonzero" d="M909.131503,361.028939 C908.579219,361.028939 908.131503,360.538584 908.131503,359.933701 L908.131503,339.124177 C908.131503,338.519294 908.579219,338.028939 909.131503,338.028939 L930.131503,338.028939 C930.683788,338.028939 931.131503,338.519294 931.131503,339.124177 L931.131503,359.933701 C931.131503,360.538584 930.683788,361.028939 930.131503,361.028939 L909.131503,361.028939 Z M929.131503,358.838463 L929.131503,340.219415 L910.131503,340.219415 L910.131503,358.838463 L929.131503,358.838463 Z" transform="scale(1 -1) rotate(-86 544.808 0)"/>
    <path fill="#858585" fill-rule="nonzero" d="M909.347534,330.246542 C908.79525,330.246542 908.347534,329.756188 908.347534,329.151304 L908.347534,308.34178 C908.347534,307.736897 908.79525,307.246542 909.347534,307.246542 L930.347534,307.246542 C930.899819,307.246542 931.347534,307.736897 931.347534,308.34178 L931.347534,329.151304 C931.347534,329.756188 930.899819,330.246542 930.347534,330.246542 L909.347534,330.246542 Z M929.347534,328.056066 L929.347534,309.437019 L910.347534,309.437019 L910.347534,328.056066 L929.347534,328.056066 Z" transform="scale(1 -1) rotate(-58 344.814 0)"/>
    <path fill="#858585" fill-rule="nonzero" d="M635.121404,136.588174 C634.569119,136.588174 634.121404,136.097819 634.121404,135.492936 L634.121404,114.683412 C634.121404,114.078529 634.569119,113.588174 635.121404,113.588174 L656.121404,113.588174 C656.673689,113.588174 657.121404,114.078529 657.121404,114.683412 L657.121404,135.492936 C657.121404,136.097819 656.673689,136.588174 656.121404,136.588174 L635.121404,136.588174 Z M655.121404,134.397698 L655.121404,115.77865 L636.121404,115.77865 L636.121404,134.397698 L655.121404,134.397698 Z" transform="rotate(-88 645.621 125.088)"/>
    <path fill="#858585" fill-rule="nonzero" d="M168.315778,233.315778 C167.763493,233.315778 167.315778,232.825423 167.315778,232.22054 L167.315778,211.411016 C167.315778,210.806133 167.763493,210.315778 168.315778,210.315778 L189.315778,210.315778 C189.868063,210.315778 190.315778,210.806133 190.315778,211.411016 L190.315778,232.22054 C190.315778,232.825423 189.868063,233.315778 189.315778,233.315778 L168.315778,233.315778 Z M188.315778,231.125302 L188.315778,212.506254 L169.315778,212.506254 L169.315778,231.125302 L188.315778,231.125302 Z" transform="scale(1 -1) rotate(-7 -3447.84 0)"/>
    <path fill="#858585" fill-rule="nonzero" d="M376.722314,146.682846 C376.170029,146.682846 375.722314,146.192491 375.722314,145.587608 L375.722314,124.778084 C375.722314,124.173201 376.170029,123.682846 376.722314,123.682846 L397.722314,123.682846 C398.274599,123.682846 398.722314,124.173201 398.722314,124.778084 L398.722314,145.587608 C398.722314,146.192491 398.274599,146.682846 397.722314,146.682846 L376.722314,146.682846 Z M396.722314,144.49237 L396.722314,125.873322 L377.722314,125.873322 L377.722314,144.49237 L396.722314,144.49237 Z" transform="rotate(-121 387.222 135.183)"/>
    <path fill="#858585" fill-rule="nonzero" d="M304.908185,110.266989 C304.355901,110.266989 303.908185,109.776635 303.908185,109.171751 L303.908185,88.3622275 C303.908185,87.7573442 304.355901,87.2669894 304.908185,87.2669894 L325.908185,87.2669894 C326.46047,87.2669894 326.908185,87.7573442 326.908185,88.3622275 L326.908185,109.171751 C326.908185,109.776635 326.46047,110.266989 325.908185,110.266989 L304.908185,110.266989 Z M324.908185,108.076513 L324.908185,89.4574656 L305.908185,89.4574656 L305.908185,108.076513 L324.908185,108.076513 Z" transform="rotate(131 315.408 98.767)"/>
    <path fill="#858585" fill-rule="nonzero" d="M216.178234,297.353844 C215.625949,297.353844 215.178234,296.86349 215.178234,296.258606 L215.178234,275.449082 C215.178234,274.844199 215.625949,274.353844 216.178234,274.353844 L237.178234,274.353844 C237.730519,274.353844 238.178234,274.844199 238.178234,275.449082 L238.178234,296.258606 C238.178234,296.86349 237.730519,297.353844 237.178234,297.353844 L216.178234,297.353844 Z M236.178234,295.163368 L236.178234,276.544321 L217.178234,276.544321 L217.178234,295.163368 L236.178234,295.163368 Z" transform="scale(-1 1) rotate(-80 0 555.998)"/>
  </g>
</svg>
