<svg xmlns="http://www.w3.org/2000/svg" width="242" height="167" viewBox="0 0 242 167">
  <g fill="none" fill-rule="evenodd" transform="translate(0 -3)">
    <path fill="#2BCB96" fill-rule="nonzero" d="M23.2721666,68.3299093 C16.0924649,68.3299093 10.2721666,62.509611 10.2721666,55.3299093 C10.2721666,48.1502075 16.0924649,42.3299093 23.2721666,42.3299093 C30.4518684,42.3299093 36.2721666,48.1502075 36.2721666,55.3299093 C36.2721666,62.509611 30.4518684,68.3299093 23.2721666,68.3299093 Z M23.2721666,66.3299093 C29.3472989,66.3299093 34.2721666,61.4050415 34.2721666,55.3299093 C34.2721666,49.254777 29.3472989,44.3299093 23.2721666,44.3299093 C17.1970344,44.3299093 12.2721666,49.254777 12.2721666,55.3299093 C12.2721666,61.4050415 17.1970344,66.3299093 23.2721666,66.3299093 Z" transform="rotate(-84 23.272 55.33)"/>
    <path fill="#1DBB7D" fill-rule="nonzero" d="M157.965242,136.276039 C150.78554,136.276039 144.965242,130.45574 144.965242,123.276039 C144.965242,116.096337 150.78554,110.276039 157.965242,110.276039 C165.144944,110.276039 170.965242,116.096337 170.965242,123.276039 C170.965242,130.45574 165.144944,136.276039 157.965242,136.276039 Z M157.965242,134.276039 C164.040374,134.276039 168.965242,129.351171 168.965242,123.276039 C168.965242,117.200906 164.040374,112.276039 157.965242,112.276039 C151.89011,112.276039 146.965242,117.200906 146.965242,123.276039 C146.965242,129.351171 151.89011,134.276039 157.965242,134.276039 Z" transform="rotate(65 157.965 123.276)"/>
    <path fill="#E9AB70" fill-rule="nonzero" d="M133.268342,101.867614 C126.08864,101.867614 120.268342,96.0473157 120.268342,88.8676139 C120.268342,81.6879122 126.08864,75.8676139 133.268342,75.8676139 C140.448044,75.8676139 146.268342,81.6879122 146.268342,88.8676139 C146.268342,96.0473157 140.448044,101.867614 133.268342,101.867614 Z M133.268342,99.8676139 C139.343474,99.8676139 144.268342,94.9427462 144.268342,88.8676139 C144.268342,82.7924817 139.343474,77.8676139 133.268342,77.8676139 C127.19321,77.8676139 122.268342,82.7924817 122.268342,88.8676139 C122.268342,94.9427462 127.19321,99.8676139 133.268342,99.8676139 Z" transform="rotate(-11 133.268 88.868)"/>
    <path fill="#E9AB70" fill-rule="nonzero" d="M117.484961,30.4849613 C110.30526,30.4849613 104.484961,24.6646631 104.484961,17.4849613 C104.484961,10.3052596 110.30526,4.48496131 117.484961,4.48496131 C124.664663,4.48496131 130.484961,10.3052596 130.484961,17.4849613 C130.484961,24.6646631 124.664663,30.4849613 117.484961,30.4849613 Z M117.484961,28.4849613 C123.560094,28.4849613 128.484961,23.5600936 128.484961,17.4849613 C128.484961,11.4098291 123.560094,6.48496131 117.484961,6.48496131 C111.409829,6.48496131 106.484961,11.4098291 106.484961,17.4849613 C106.484961,23.5600936 111.409829,28.4849613 117.484961,28.4849613 Z" transform="scale(-1 1) rotate(-63 0 209.203)"/>
    <path fill="#1DBB7D" fill-rule="nonzero" d="M7.09869503,140.736328 L30.5767615,140.736328 L19.2847261,121.628295 L7.09869503,140.736328 Z M20.1597845,119.223565 L33.1596648,141.221561 C33.5539376,141.888737 33.0815892,142.73833 32.3163862,142.73833 L5.28741926,142.73833 C4.5070952,142.73833 4.03726957,141.858468 4.46198411,141.192504 L18.4910708,119.194509 C18.8869195,118.573807 19.7850469,118.589446 20.1597845,119.223565 Z" transform="rotate(135 18.802 130.738)"/>
    <path fill="#E9AB70" fill-rule="nonzero" d="M75.4174014,149.196693 L98.8954679,149.196693 L87.6034324,130.088659 L75.4174014,149.196693 Z M88.4784908,127.68393 L101.478371,149.681925 C101.872644,150.349102 101.400296,151.198695 100.635093,151.198695 L73.6061256,151.198695 C72.8258016,151.198695 72.3559759,150.318833 72.7806905,149.652869 L86.8097772,127.654874 C87.2056259,127.034172 88.1037532,127.04981 88.4784908,127.68393 Z" transform="scale(1 -1) rotate(-81 -75.86 0)"/>
    <path fill="#E9AB70" fill-rule="nonzero" d="M61.5097236,73.2458442 L84.9877901,73.2458442 L73.6957547,54.1378108 L61.5097236,73.2458442 Z M74.5708131,51.7330812 L87.5706934,73.7310768 C87.9649662,74.3982531 87.4926178,75.247846 86.7274148,75.247846 L59.6984479,75.247846 C58.9181238,75.247846 58.4482982,74.3679848 58.8730127,73.7020206 L72.9020994,51.7040251 C73.2979481,51.0833233 74.1960755,51.0989618 74.5708131,51.7330812 Z" transform="rotate(155 73.213 63.248)"/>
    <path fill="#F6F0E4" fill-rule="nonzero" d="M134.73324,55.400707 L158.211307,55.400707 L146.919271,36.2926736 L134.73324,55.400707 Z M147.79433,33.887944 L160.79421,55.8859396 C161.188483,56.5531158 160.716135,57.4027088 159.950932,57.4027088 L132.921965,57.4027088 C132.141641,57.4027088 131.671815,56.5228476 132.09653,55.8568834 L146.125616,33.8588879 C146.521465,33.2381861 147.419592,33.2538246 147.79433,33.887944 Z" transform="rotate(152 146.436 45.403)"/>
    <path fill="#E9AB70" fill-rule="nonzero" d="M208.633343,108.740691 L232.111409,108.740691 L220.819374,89.6326574 L208.633343,108.740691 Z M221.694432,87.2279278 L234.694312,109.225923 C235.088585,109.8931 234.616237,110.742693 233.851034,110.742693 L206.822067,110.742693 C206.041743,110.742693 205.571917,109.862831 205.996632,109.196867 L220.025718,87.1988716 C220.421567,86.5781699 221.319694,86.5938084 221.694432,87.2279278 Z" transform="scale(-1 1) rotate(13 0 -1835.126)"/>
    <path fill="#1DBB7D" fill-rule="nonzero" d="M164.474966,90.2495024 L187.953032,90.2495024 L176.660997,71.1414691 L164.474966,90.2495024 Z M177.536055,68.7367395 L190.535935,90.734735 C190.930208,91.4019113 190.45786,92.2515042 189.692657,92.2515042 L162.66369,92.2515042 C161.883366,92.2515042 161.41354,91.371643 161.838255,90.7056789 L175.867341,68.7076833 C176.26319,68.0869816 177.161317,68.1026201 177.536055,68.7367395 Z" transform="rotate(25 176.178 80.252)"/>
    <path fill="#1DBB7D" fill-rule="nonzero" d="M67.1870856,43.8778512 L90.6651521,43.8778512 L79.3731166,24.7698178 L67.1870856,43.8778512 Z M80.248175,22.3650882 L93.2480553,44.3630838 C93.6423281,45.0302601 93.1699797,45.879853 92.4047767,45.879853 L65.3758098,45.879853 C64.5954857,45.879853 64.1256601,44.9999918 64.5503746,44.3340277 L78.5794613,22.3360321 C78.97531,21.7153304 79.8734374,21.7309688 80.248175,22.3650882 Z" transform="scale(1 -1) rotate(55 143.973 0)"/>
    <path fill="#858585" fill-rule="nonzero" d="M189.795574,60.9079592 L213.273641,60.9079592 L201.981605,41.7999258 L189.795574,60.9079592 Z M202.856664,39.3951962 L215.856544,61.3931918 C216.250817,62.060368 215.778468,62.909961 215.013265,62.909961 L187.984298,62.909961 C187.203974,62.909961 186.734149,62.0300997 187.158863,61.3641356 L201.18795,39.36614 C201.583799,38.7454383 202.481926,38.7610768 202.856664,39.3951962 Z" transform="rotate(88 201.499 50.91)"/>
    <path fill="#EEEEEE" fill-rule="nonzero" d="M44.0266263,130.233602 L67.5046928,130.233602 L56.2126573,111.125568 L44.0266263,130.233602 Z M57.0877157,108.720839 L70.087596,130.718834 C70.4818688,131.386011 70.0095204,132.235604 69.2443175,132.235604 L42.2153505,132.235604 C41.4350265,132.235604 40.9652008,131.355742 41.3899154,130.689778 L55.419002,108.691783 C55.8148508,108.071081 56.7129781,108.086719 57.0877157,108.720839 Z" transform="scale(-1 1) rotate(20 0 -195.824)"/>
    <path fill="#B6E7E6" fill-rule="nonzero" d="M105.781803,148.786607 L129.259869,148.786607 L117.967834,129.678574 L105.781803,148.786607 Z M118.842892,127.273844 L131.842773,149.27184 C132.237045,149.939016 131.764697,150.788609 130.999494,150.788609 L103.970527,150.788609 C103.190203,150.788609 102.720377,149.908748 103.145092,149.242784 L117.174179,127.244788 C117.570027,126.624086 118.468155,126.639725 118.842892,127.273844 Z" transform="rotate(-47 117.485 138.789)"/>
    <rect width="38" height="2" x="92.142" y="62.142" fill="#1DBB7D" opacity=".84" transform="rotate(-45 111.142 63.142)"/>
    <rect width="38" height="2" x="151.468" y="34.884" fill="#B6E7E6" opacity=".84" transform="rotate(-76 170.468 35.883)"/>
    <rect width="38" height="2" x="169.883" y="129.611" fill="#B6E7E6" opacity=".84" transform="rotate(-75 188.883 130.611)"/>
    <rect width="38" height="2" x="98.198" y="110.979" fill="#EEEEEE" opacity=".84" transform="rotate(-140 117.198 111.979)"/>
    <path fill="#B6E7E6" fill-rule="nonzero" d="M27.7243391,28.7243391 C27.1720543,28.7243391 26.7243391,28.2339843 26.7243391,27.629101 L26.7243391,6.81957719 C26.7243391,6.21469389 27.1720543,5.7243391 27.7243391,5.7243391 L48.7243391,5.7243391 C49.2766238,5.7243391 49.7243391,6.21469389 49.7243391,6.81957719 L49.7243391,27.629101 C49.7243391,28.2339843 49.2766238,28.7243391 48.7243391,28.7243391 L27.7243391,28.7243391 Z M47.7243391,26.5338629 L47.7243391,7.91481529 L28.7243391,7.91481529 L28.7243391,26.5338629 L47.7243391,26.5338629 Z" transform="scale(1 -1) rotate(16 160.782 0)"/>
    <path fill="#B6E7E6" fill-rule="nonzero" d="M68.1967799,109.279712 C67.6444952,109.279712 67.1967799,108.789358 67.1967799,108.184474 L67.1967799,87.3749506 C67.1967799,86.7700673 67.6444952,86.2797125 68.1967799,86.2797125 L89.1967799,86.2797125 C89.7490647,86.2797125 90.1967799,86.7700673 90.1967799,87.3749506 L90.1967799,108.184474 C90.1967799,108.789358 89.7490647,109.279712 89.1967799,109.279712 L68.1967799,109.279712 Z M88.1967799,107.089236 L88.1967799,88.4701887 L69.1967799,88.4701887 L69.1967799,107.089236 L88.1967799,107.089236 Z" transform="rotate(-57 78.697 97.78)"/>
    <path fill="#858585" fill-rule="nonzero" d="M44.0072105,166.859779 C43.4549258,166.859779 43.0072105,166.369425 43.0072105,165.764541 L43.0072105,144.955017 C43.0072105,144.350134 43.4549258,143.859779 44.0072105,143.859779 L65.0072105,143.859779 C65.5594953,143.859779 66.0072105,144.350134 66.0072105,144.955017 L66.0072105,165.764541 C66.0072105,166.369425 65.5594953,166.859779 65.0072105,166.859779 L44.0072105,166.859779 Z M64.0072105,164.669303 L64.0072105,146.050255 L45.0072105,146.050255 L45.0072105,164.669303 L64.0072105,164.669303 Z" transform="scale(-1 1) rotate(-73 0 229.022)"/>
    <path fill="#858585" fill-rule="nonzero" d="M27.4652469,99.3222341 C26.9129622,99.3222341 26.4652469,98.8318793 26.4652469,98.226996 L26.4652469,77.4174722 C26.4652469,76.8125889 26.9129622,76.3222341 27.4652469,76.3222341 L48.4652469,76.3222341 C49.0175317,76.3222341 49.4652469,76.8125889 49.4652469,77.4174722 L49.4652469,98.226996 C49.4652469,98.8318793 49.0175317,99.3222341 48.4652469,99.3222341 L27.4652469,99.3222341 Z M47.4652469,97.1317579 L47.4652469,78.5127103 L28.4652469,78.5127103 L28.4652469,97.1317579 L47.4652469,97.1317579 Z" transform="scale(-1 1) rotate(4 0 -999.36)"/>
    <path fill="#E7E7E7" fill-rule="nonzero" d="M217.584566,75.584566 C217.032281,75.584566 216.584566,75.0942112 216.584566,74.4893279 L216.584566,53.6798041 C216.584566,53.0749208 217.032281,52.584566 217.584566,52.584566 L238.584566,52.584566 C239.136851,52.584566 239.584566,53.0749208 239.584566,53.6798041 L239.584566,74.4893279 C239.584566,75.0942112 239.136851,75.584566 238.584566,75.584566 L217.584566,75.584566 Z M237.584566,73.3940898 L237.584566,54.7750422 L218.584566,54.7750422 L218.584566,73.3940898 L237.584566,73.3940898 Z" transform="rotate(-105 228.085 64.085)"/>
  </g>
</svg>
