<?xml version="1.0" encoding="UTF-8"?>
<svg width="184px" height="136px" viewBox="0 0 184 136" version="1.1" xmlns="http://www.w3.org/2000/svg" xmlns:xlink="http://www.w3.org/1999/xlink">
    <!-- Generator: Sketch 46.2 (44496) - http://www.bohemiancoding.com/sketch -->
    <title>Group 5</title>
    <desc>Created with Sketch.</desc>
    <defs></defs>
    <g id="Skinned" stroke="none" stroke-width="1" fill="none" fill-rule="evenodd">
        <g id="W-2.0-Features" transform="translate(-255.000000, -1006.000000)">
            <g id="Group-6" transform="translate(199.000000, 982.000000)">
                <g id="Group-5" transform="translate(57.000000, 25.000000)">
                    <g id="Group-4" stroke="#474B57" stroke-width="2">
                        <rect id="Rectangle-2" x="0" y="0" width="159" height="113" rx="6"></rect>
                        <rect id="Rectangle-2" fill="#F7F7F7" x="8" y="8" width="143" height="97" rx="3"></rect>
                        <rect id="Rectangle-3" x="68" y="113" width="24" height="21"></rect>
                        <path d="M104,134 L56,134" id="Line"></path>
                    </g>
                    <g id="Group" transform="translate(118.000000, 49.000000)">
                        <rect id="Rectangle-4" fill="#73C6E7" x="5" y="0" width="55" height="84" rx="27.5"></rect>
                        <path d="M27.3463963,29.8940024 C24.6524566,34.0260819 18.8729195,35.2512645 15.4627245,32.5943998 C12.0525296,29.9375351 10.7298659,23.3139261 13.4821125,19.0924129 C16.2343592,14.8708997 22.7199965,13.816335 26.0259883,16.3920155 C29.33198,18.9676961 30.040336,25.7619229 27.3463963,29.8940024 Z" id="Path-7" fill="#FFFFFF"></path>
                        <path d="M23.3191043,25.487264 C22.2098351,27.0096091 19.8300257,27.4609922 18.4258277,26.4821473 C17.0216298,25.5033024 16.4770036,23.0630254 17.6102816,21.5077311 C18.7435597,19.9524367 21.4141162,19.5639129 22.7754069,20.5128478 C24.1366977,21.4617828 24.4283736,23.964919 23.3191043,25.487264 Z" id="Path-7" fill="#111212"></path>
                        <circle id="Oval" fill="#FFFFFF" cx="21" cy="22" r="1"></circle>
                        <path d="M5.5101724,18.4285714 C5.5101724,18.4285714 -1.60523617,15.049912 0.3353298,10.9955207 C2.27589577,6.94112942 9.39130435,10.3197888 9.39130435,10.3197888 L18,12.1428571 L10.173913,19.2142857 L7.82608696,20 L5.5101724,18.4285714 Z" id="Path-8" fill="#73C6E7"></path>
                        <path d="M8,13 L6,16 C6,16 1,14.22 3,12 C5,9.78 8,13 8,13 Z" id="Path-9" fill="#008ABF"></path>
                        <path d="M51.3463963,29.8940024 C48.6524566,34.0260819 42.8729195,35.2512645 39.4627245,32.5943998 C36.0525296,29.9375351 34.7298659,23.3139261 37.4821125,19.0924129 C40.2343592,14.8708997 46.7199965,13.816335 50.0259883,16.3920155 C53.33198,18.9676961 54.040336,25.7619229 51.3463963,29.8940024 Z" id="Path-7" fill="#FFFFFF" transform="translate(44.500000, 24.500000) scale(-1, 1) translate(-44.500000, -24.500000) "></path>
                        <path d="M48.3191043,25.487264 C47.2098351,27.0096091 44.8300257,27.4609922 43.4258277,26.4821473 C42.0216298,25.5033024 41.4770036,23.0630254 42.6102816,21.5077311 C43.7435597,19.9524367 46.4141162,19.5639129 47.7754069,20.5128478 C49.1366977,21.4617828 49.4283736,23.964919 48.3191043,25.487264 Z" id="Path-7" fill="#111212" transform="translate(45.500000, 23.500000) scale(-1, 1) translate(-45.500000, -23.500000) "></path>
                        <circle id="Oval" fill="#FFFFFF" transform="translate(44.000000, 22.000000) scale(-1, 1) translate(-44.000000, -22.000000) " cx="44" cy="22" r="1"></circle>
                        <path d="M55.5585072,18.6 C55.5585072,18.6 48.3806828,15.1599104 50.3382713,11.0318029 C52.2958598,6.90369541 59.4736842,10.343785 59.4736842,10.343785 L65,13 L58.6842105,21 L55.5585072,18.6 Z" id="Path-8" fill="#73C6E7" transform="translate(57.500000, 15.000000) scale(-1, 1) translate(-57.500000, -15.000000) "></path>
                        <path d="M62.4722222,13 L60.4722222,16 C60.4722222,16 55.4722222,15 57.4722222,12 C59.4722222,9 62.4722222,13 62.4722222,13 Z" id="Path-9" fill="#008ABF" transform="translate(59.736111, 13.442149) scale(-1, 1) translate(-59.736111, -13.442149) "></path>
                        <path d="M32.5,38 C29.25,38 26,38 26,35 C26,32 29.25,31 32.5,31 C35.75,31 39,33 39,35 C39,37 35.75,38 32.5,38 Z" id="Path-13" fill="#C1937F"></path>
                        <rect id="Rectangle" fill="#FFFFFF" x="29" y="37" width="7" height="4" rx="2"></rect>
                        <rect id="Rectangle-5" fill="#C1937F" x="59" y="50" width="4" height="6" rx="2"></rect>
                        <rect id="Rectangle-5" fill="#C1937F" x="3" y="50" width="4" height="6" rx="2"></rect>
                        <ellipse id="Oval-2" fill="#C1937F" cx="46.5" cy="81.5" rx="4.5" ry="3.5"></ellipse>
                        <ellipse id="Oval-2" fill="#C1937F" cx="17.5" cy="81.5" rx="4.5" ry="3.5"></ellipse>
                        <path d="M32,35 C30.5,35 29,35 29,32.8571429 C29,30.7142857 30.5,30 32,30 C33.5,30 35,31.4285714 35,32.8571429 C35,34.2857143 33.5,35 32,35 Z" id="Path-13" fill="#111212"></path>
                    </g>
                </g>
            </g>
        </g>
    </g>
</svg>