<?xml version="1.0" encoding="UTF-8"?>
<svg width="88px" height="82px" viewBox="0 0 88 82" version="1.1" xmlns="http://www.w3.org/2000/svg" xmlns:xlink="http://www.w3.org/1999/xlink">
    <!-- Generator: Sketch 46.2 (44496) - http://www.bohemiancoding.com/sketch -->
    <title>Group 2</title>
    <desc>Created with Sketch.</desc>
    <defs></defs>
    <g id="Skinned" stroke="none" stroke-width="1" fill="none" fill-rule="evenodd">
        <g id="W-2.0-Features" transform="translate(-1097.000000, -1037.000000)">
            <g id="Group-6" transform="translate(199.000000, 982.000000)">
                <g id="Group-2" transform="translate(898.000000, 56.000000)">
                    <circle id="Oval-3" stroke="#484B57" stroke-width="2" fill="#F7F7F7" stroke-linecap="square" cx="47" cy="40" r="40"></circle>
                    <rect id="Rectangle-10" fill="#F7F7F7" x="0" y="22" width="26" height="37"></rect>
                    <path d="M37,30 L37,52 L59,52 L59,30 L37,30 Z" id="Rectangle-9" stroke="#1DBB7D" stroke-width="4"></path>
                    <path d="M60,30 L65,30" id="Line" stroke="#1DBB7D" stroke-width="4" stroke-linecap="square"></path>
                    <path d="M30,30 L35,30" id="Line" stroke="#1DBB7D" stroke-width="4" stroke-linecap="square"></path>
                    <path d="M60,41 L65,41" id="Line" stroke="#1DBB7D" stroke-width="4" stroke-linecap="square"></path>
                    <path d="M30,41 L35,41" id="Line" stroke="#1DBB7D" stroke-width="4" stroke-linecap="square"></path>
                    <path d="M12.9289322,41 L20,41" id="Line" stroke="#1DBB7D" stroke-width="4" stroke-linecap="square"></path>
                    <path d="M60,52 L65,52" id="Line" stroke="#1DBB7D" stroke-width="4" stroke-linecap="square"></path>
                    <path d="M30,52 L35,52" id="Line" stroke="#1DBB7D" stroke-width="4" stroke-linecap="square"></path>
                    <path d="M4.86725405,52 L20,52" id="Line" stroke="#1DBB7D" stroke-width="4" stroke-linecap="square"></path>
                    <path d="M4.86725405,30 L20,30" id="Line" stroke="#1DBB7D" stroke-width="4" stroke-linecap="square"></path>
                    <path d="M56.5,54.5 L61.5,54.5" id="Line" stroke="#1DBB7D" stroke-width="4" stroke-linecap="square" transform="translate(59.000000, 54.500000) rotate(-270.000000) translate(-59.000000, -54.500000) "></path>
                    <path d="M45.5,54.5 L50.5,54.5" id="Line" stroke="#1DBB7D" stroke-width="4" stroke-linecap="square" transform="translate(48.000000, 54.500000) rotate(-270.000000) translate(-48.000000, -54.500000) "></path>
                    <path d="M34.5,54.5 L39.5,54.5" id="Line" stroke="#1DBB7D" stroke-width="4" stroke-linecap="square" transform="translate(37.000000, 54.500000) rotate(-270.000000) translate(-37.000000, -54.500000) "></path>
                    <path d="M56.5,26.5 L61.5,26.5" id="Line" stroke="#1DBB7D" stroke-width="4" stroke-linecap="square" transform="translate(59.000000, 26.500000) rotate(-270.000000) translate(-59.000000, -26.500000) "></path>
                    <path d="M45.5,26.5 L50.5,26.5" id="Line" stroke="#1DBB7D" stroke-width="4" stroke-linecap="square" transform="translate(48.000000, 26.500000) rotate(-270.000000) translate(-48.000000, -26.500000) "></path>
                    <path d="M34.5,26.5 L39.5,26.5" id="Line" stroke="#1DBB7D" stroke-width="4" stroke-linecap="square" transform="translate(37.000000, 26.500000) rotate(-270.000000) translate(-37.000000, -26.500000) "></path>
                </g>
            </g>
        </g>
    </g>
</svg>