<?xml version="1.0" encoding="UTF-8"?>
<svg width="1309px" height="296px" viewBox="0 0 1309 296" version="1.1" xmlns="http://www.w3.org/2000/svg" xmlns:xlink="http://www.w3.org/1999/xlink">
    <!-- Generator: Sketch 46.2 (44496) - http://www.bohemiancoding.com/sketch -->
    <title>background</title>
    <desc>Created with Sketch.</desc>
    <defs>
        <path d="M13,26 C5.82029825,26 0,20.1797017 0,13 C0,5.82029825 5.82029825,0 13,0 C20.1797017,0 26,5.82029825 26,13 C26,20.1797017 20.1797017,26 13,26 Z M13,24 C19.0751322,24 24,19.0751322 24,13 C24,6.92486775 19.0751322,2 13,2 C6.92486775,2 2,6.92486775 2,13 C2,19.0751322 6.92486775,24 13,24 Z" id="path-1"></path>
        <path d="M1,23 C0.44771525,23 0,22.5096452 0,21.9047619 L0,1.0952381 C0,0.490354798 0.44771525,0 1,0 L22,0 C22.5522847,0 23,0.490354798 23,1.0952381 L23,21.9047619 C23,22.5096452 22.5522847,23 22,23 L1,23 Z M21,20.8095238 L21,2.19047619 L2,2.19047619 L2,20.8095238 L21,20.8095238 Z" id="path-3"></path>
        <path d="M13,26 C5.82029825,26 0,20.1797017 0,13 C0,5.82029825 5.82029825,0 13,0 C20.1797017,0 26,5.82029825 26,13 C26,20.1797017 20.1797017,26 13,26 Z M13,24 C19.0751322,24 24,19.0751322 24,13 C24,6.92486775 19.0751322,2 13,2 C6.92486775,2 2,6.92486775 2,13 C2,19.0751322 6.92486775,24 13,24 Z" id="path-5"></path>
        <path d="M13,26 C5.82029825,26 0,20.1797017 0,13 C0,5.82029825 5.82029825,0 13,0 C20.1797017,0 26,5.82029825 26,13 C26,20.1797017 20.1797017,26 13,26 Z M13,24 C19.0751322,24 24,19.0751322 24,13 C24,6.92486775 19.0751322,2 13,2 C6.92486775,2 2,6.92486775 2,13 C2,19.0751322 6.92486775,24 13,24 Z" id="path-7"></path>
        <path d="M13,26 C5.82029825,26 0,20.1797017 0,13 C0,5.82029825 5.82029825,0 13,0 C20.1797017,0 26,5.82029825 26,13 C26,20.1797017 20.1797017,26 13,26 Z M13,24 C19.0751322,24 24,19.0751322 24,13 C24,6.92486775 19.0751322,2 13,2 C6.92486775,2 2,6.92486775 2,13 C2,19.0751322 6.92486775,24 13,24 Z" id="path-9"></path>
        <path d="M1,23 C0.44771525,23 0,22.5096452 0,21.9047619 L0,1.0952381 C0,0.490354798 0.44771525,0 1,0 L22,0 C22.5522847,0 23,0.490354798 23,1.0952381 L23,21.9047619 C23,22.5096452 22.5522847,23 22,23 L1,23 Z M21,20.8095238 L21,2.19047619 L2,2.19047619 L2,20.8095238 L21,20.8095238 Z" id="path-11"></path>
        <path d="M1,23 C0.44771525,23 0,22.5096452 0,21.9047619 L0,1.0952381 C0,0.490354798 0.44771525,0 1,0 L22,0 C22.5522847,0 23,0.490354798 23,1.0952381 L23,21.9047619 C23,22.5096452 22.5522847,23 22,23 L1,23 Z M21,20.8095238 L21,2.19047619 L2,2.19047619 L2,20.8095238 L21,20.8095238 Z" id="path-13"></path>
        <path d="M2.84247779,21.9760026 L26.7036371,21.9760026 L15.2273489,2.88707518 L2.84247779,21.9760026 Z M16.1166857,0.484750052 L29.3286857,22.4607501 C29.7293919,23.1272592 29.2493362,23.9760026 28.4716473,23.9760026 L1.00164733,23.9760026 C0.208590686,23.9760026 -0.268901116,23.0970212 0.162743512,22.4317229 L14.4207435,0.455722947 C14.8230513,-0.164358139 15.7358335,-0.148735305 16.1166857,0.484750052 Z" id="path-15"></path>
        <path d="M2.84247779,21.9760026 L26.7036371,21.9760026 L15.2273489,2.88707518 L2.84247779,21.9760026 Z M16.1166857,0.484750052 L29.3286857,22.4607501 C29.7293919,23.1272592 29.2493362,23.9760026 28.4716473,23.9760026 L1.00164733,23.9760026 C0.208590686,23.9760026 -0.268901116,23.0970212 0.162743512,22.4317229 L14.4207435,0.455722947 C14.8230513,-0.164358139 15.7358335,-0.148735305 16.1166857,0.484750052 Z" id="path-17"></path>
        <path d="M13,26 C5.82029825,26 0,20.1797017 0,13 C0,5.82029825 5.82029825,0 13,0 C20.1797017,0 26,5.82029825 26,13 C26,20.1797017 20.1797017,26 13,26 Z M13,24 C19.0751322,24 24,19.0751322 24,13 C24,6.92486775 19.0751322,2 13,2 C6.92486775,2 2,6.92486775 2,13 C2,19.0751322 6.92486775,24 13,24 Z" id="path-19"></path>
        <path d="M13,26 C5.82029825,26 0,20.1797017 0,13 C0,5.82029825 5.82029825,0 13,0 C20.1797017,0 26,5.82029825 26,13 C26,20.1797017 20.1797017,26 13,26 Z M13,24 C19.0751322,24 24,19.0751322 24,13 C24,6.92486775 19.0751322,2 13,2 C6.92486775,2 2,6.92486775 2,13 C2,19.0751322 6.92486775,24 13,24 Z" id="path-21"></path>
        <path d="M13,26 C5.82029825,26 0,20.1797017 0,13 C0,5.82029825 5.82029825,0 13,0 C20.1797017,0 26,5.82029825 26,13 C26,20.1797017 20.1797017,26 13,26 Z M13,24 C19.0751322,24 24,19.0751322 24,13 C24,6.92486775 19.0751322,2 13,2 C6.92486775,2 2,6.92486775 2,13 C2,19.0751322 6.92486775,24 13,24 Z" id="path-23"></path>
        <path d="M1,23 C0.44771525,23 0,22.5096452 0,21.9047619 L0,1.0952381 C0,0.490354798 0.44771525,0 1,0 L22,0 C22.5522847,0 23,0.490354798 23,1.0952381 L23,21.9047619 C23,22.5096452 22.5522847,23 22,23 L1,23 Z M21,20.8095238 L21,2.19047619 L2,2.19047619 L2,20.8095238 L21,20.8095238 Z" id="path-25"></path>
        <path d="M2.84247779,21.9760026 L26.7036371,21.9760026 L15.2273489,2.88707518 L2.84247779,21.9760026 Z M16.1166857,0.484750052 L29.3286857,22.4607501 C29.7293919,23.1272592 29.2493362,23.9760026 28.4716473,23.9760026 L1.00164733,23.9760026 C0.208590686,23.9760026 -0.268901116,23.0970212 0.162743512,22.4317229 L14.4207435,0.455722947 C14.8230513,-0.164358139 15.7358335,-0.148735305 16.1166857,0.484750052 Z" id="path-27"></path>
        <path d="M2.84247779,21.9760026 L26.7036371,21.9760026 L15.2273489,2.88707518 L2.84247779,21.9760026 Z M16.1166857,0.484750052 L29.3286857,22.4607501 C29.7293919,23.1272592 29.2493362,23.9760026 28.4716473,23.9760026 L1.00164733,23.9760026 C0.208590686,23.9760026 -0.268901116,23.0970212 0.162743512,22.4317229 L14.4207435,0.455722947 C14.8230513,-0.164358139 15.7358335,-0.148735305 16.1166857,0.484750052 Z" id="path-29"></path>
        <path d="M2.84247779,21.9760026 L26.7036371,21.9760026 L15.2273489,2.88707518 L2.84247779,21.9760026 Z M16.1166857,0.484750052 L29.3286857,22.4607501 C29.7293919,23.1272592 29.2493362,23.9760026 28.4716473,23.9760026 L1.00164733,23.9760026 C0.208590686,23.9760026 -0.268901116,23.0970212 0.162743512,22.4317229 L14.4207435,0.455722947 C14.8230513,-0.164358139 15.7358335,-0.148735305 16.1166857,0.484750052 Z" id="path-31"></path>
        <path d="M13,26 C5.82029825,26 0,20.1797017 0,13 C0,5.82029825 5.82029825,0 13,0 C20.1797017,0 26,5.82029825 26,13 C26,20.1797017 20.1797017,26 13,26 Z M13,24 C19.0751322,24 24,19.0751322 24,13 C24,6.92486775 19.0751322,2 13,2 C6.92486775,2 2,6.92486775 2,13 C2,19.0751322 6.92486775,24 13,24 Z" id="path-33"></path>
        <path d="M1,23 C0.44771525,23 0,22.5096452 0,21.9047619 L0,1.0952381 C0,0.490354798 0.44771525,0 1,0 L22,0 C22.5522847,0 23,0.490354798 23,1.0952381 L23,21.9047619 C23,22.5096452 22.5522847,23 22,23 L1,23 Z M21,20.8095238 L21,2.19047619 L2,2.19047619 L2,20.8095238 L21,20.8095238 Z" id="path-35"></path>
        <path d="M2.84247779,21.9760026 L26.7036371,21.9760026 L15.2273489,2.88707518 L2.84247779,21.9760026 Z M16.1166857,0.484750052 L29.3286857,22.4607501 C29.7293919,23.1272592 29.2493362,23.9760026 28.4716473,23.9760026 L1.00164733,23.9760026 C0.208590686,23.9760026 -0.268901116,23.0970212 0.162743512,22.4317229 L14.4207435,0.455722947 C14.8230513,-0.164358139 15.7358335,-0.148735305 16.1166857,0.484750052 Z" id="path-37"></path>
        <path d="M2.84247779,21.9760026 L26.7036371,21.9760026 L15.2273489,2.88707518 L2.84247779,21.9760026 Z M16.1166857,0.484750052 L29.3286857,22.4607501 C29.7293919,23.1272592 29.2493362,23.9760026 28.4716473,23.9760026 L1.00164733,23.9760026 C0.208590686,23.9760026 -0.268901116,23.0970212 0.162743512,22.4317229 L14.4207435,0.455722947 C14.8230513,-0.164358139 15.7358335,-0.148735305 16.1166857,0.484750052 Z" id="path-39"></path>
        <path d="M2.84247779,21.9760026 L26.7036371,21.9760026 L15.2273489,2.88707518 L2.84247779,21.9760026 Z M16.1166857,0.484750052 L29.3286857,22.4607501 C29.7293919,23.1272592 29.2493362,23.9760026 28.4716473,23.9760026 L1.00164733,23.9760026 C0.208590686,23.9760026 -0.268901116,23.0970212 0.162743512,22.4317229 L14.4207435,0.455722947 C14.8230513,-0.164358139 15.7358335,-0.148735305 16.1166857,0.484750052 Z" id="path-41"></path>
        <path d="M2.84247779,21.9760026 L26.7036371,21.9760026 L15.2273489,2.88707518 L2.84247779,21.9760026 Z M16.1166857,0.484750052 L29.3286857,22.4607501 C29.7293919,23.1272592 29.2493362,23.9760026 28.4716473,23.9760026 L1.00164733,23.9760026 C0.208590686,23.9760026 -0.268901116,23.0970212 0.162743512,22.4317229 L14.4207435,0.455722947 C14.8230513,-0.164358139 15.7358335,-0.148735305 16.1166857,0.484750052 Z" id="path-43"></path>
        <path d="M13,26 C5.82029825,26 0,20.1797017 0,13 C0,5.82029825 5.82029825,0 13,0 C20.1797017,0 26,5.82029825 26,13 C26,20.1797017 20.1797017,26 13,26 Z M13,24 C19.0751322,24 24,19.0751322 24,13 C24,6.92486775 19.0751322,2 13,2 C6.92486775,2 2,6.92486775 2,13 C2,19.0751322 6.92486775,24 13,24 Z" id="path-45"></path>
        <path d="M1,23 C0.44771525,23 0,22.5096452 0,21.9047619 L0,1.0952381 C0,0.490354798 0.44771525,0 1,0 L22,0 C22.5522847,0 23,0.490354798 23,1.0952381 L23,21.9047619 C23,22.5096452 22.5522847,23 22,23 L1,23 Z M21,20.8095238 L21,2.19047619 L2,2.19047619 L2,20.8095238 L21,20.8095238 Z" id="path-47"></path>
        <path d="M2.84247779,21.9760026 L26.7036371,21.9760026 L15.2273489,2.88707518 L2.84247779,21.9760026 Z M16.1166857,0.484750052 L29.3286857,22.4607501 C29.7293919,23.1272592 29.2493362,23.9760026 28.4716473,23.9760026 L1.00164733,23.9760026 C0.208590686,23.9760026 -0.268901116,23.0970212 0.162743512,22.4317229 L14.4207435,0.455722947 C14.8230513,-0.164358139 15.7358335,-0.148735305 16.1166857,0.484750052 Z" id="path-49"></path>
        <path d="M2.84247779,21.9760026 L26.7036371,21.9760026 L15.2273489,2.88707518 L2.84247779,21.9760026 Z M16.1166857,0.484750052 L29.3286857,22.4607501 C29.7293919,23.1272592 29.2493362,23.9760026 28.4716473,23.9760026 L1.00164733,23.9760026 C0.208590686,23.9760026 -0.268901116,23.0970212 0.162743512,22.4317229 L14.4207435,0.455722947 C14.8230513,-0.164358139 15.7358335,-0.148735305 16.1166857,0.484750052 Z" id="path-51"></path>
    </defs>
    <g id="Skinned" stroke="none" stroke-width="1" fill="none" fill-rule="evenodd">
        <g id="W-1.0-About" transform="translate(-55.000000, -5233.000000)">
            <g id="background" transform="translate(55.000000, 5233.000000)">
                <g id="icons/flat/circle-keyline-2" transform="translate(263.000000, 114.000000) rotate(-270.000000) translate(-263.000000, -114.000000) translate(250.000000, 101.000000)">
                    <g>
                        <mask id="mask-2" fill="white">
                            <use xlink:href="#path-1"></use>
                        </mask>
                        <use id="Mask" fill="#979797" fill-rule="nonzero" xlink:href="#path-1"></use>
                        <g id="Colour/Light-green" mask="url(#mask-2)">
                            <g transform="translate(-3.000000, -3.000000)"></g>
                        </g>
                    </g>
                </g>
                <g id="icons/flat/square-keyline" transform="translate(190.500000, 152.500000) rotate(-270.000000) translate(-190.500000, -152.500000) translate(179.000000, 141.000000)">
                    <g>
                        <mask id="mask-4" fill="white">
                            <use xlink:href="#path-3"></use>
                        </mask>
                        <use id="Mask" fill="#000000" fill-rule="nonzero" xlink:href="#path-3"></use>
                        <g id="Colour/Light-Blue" mask="url(#mask-4)">
                            <g transform="translate(-4.000000, -5.476190)"></g>
                        </g>
                    </g>
                </g>
                <g id="icons/flat/circle-keyline-2" transform="translate(192.000000, 219.000000) rotate(-270.000000) translate(-192.000000, -219.000000) translate(179.000000, 206.000000)">
                    <g>
                        <mask id="mask-6" fill="white">
                            <use xlink:href="#path-5"></use>
                        </mask>
                        <use id="Mask" fill="#979797" fill-rule="nonzero" xlink:href="#path-5"></use>
                        <g id="Colour/Mid-grey" mask="url(#mask-6)">
                            <g transform="translate(-3.000000, -3.000000)"></g>
                        </g>
                    </g>
                </g>
                <g id="icons/flat/circle-keyline-2" transform="translate(111.795329, 28.795329) rotate(-291.000000) translate(-111.795329, -28.795329) translate(98.795329, 15.795329)">
                    <g>
                        <mask id="mask-8" fill="white">
                            <use xlink:href="#path-7"></use>
                        </mask>
                        <use id="Mask" fill="#979797" fill-rule="nonzero" xlink:href="#path-7"></use>
                        <g id="Colour/gold" mask="url(#mask-8)">
                            <g transform="translate(-3.000000, -3.000000)"></g>
                        </g>
                    </g>
                </g>
                <g id="icons/flat/circle-keyline-2" transform="translate(227.247739, 30.247739) rotate(-232.000000) translate(-227.247739, -30.247739) translate(214.247739, 17.247739)">
                    <g>
                        <mask id="mask-10" fill="white">
                            <use xlink:href="#path-9"></use>
                        </mask>
                        <use id="Mask" fill="#979797" fill-rule="nonzero" xlink:href="#path-9"></use>
                        <g id="Colour/Light-green" mask="url(#mask-10)">
                            <g transform="translate(-3.000000, -3.000000)"></g>
                        </g>
                    </g>
                </g>
                <g id="icons/flat/square-keyline" transform="translate(111.500000, 148.500000) rotate(-270.000000) translate(-111.500000, -148.500000) translate(100.000000, 137.000000)">
                    <g>
                        <mask id="mask-12" fill="white">
                            <use xlink:href="#path-11"></use>
                        </mask>
                        <use id="Mask" fill="#000000" fill-rule="nonzero" xlink:href="#path-11"></use>
                        <g id="Colour/Light-Blue" mask="url(#mask-12)">
                            <g transform="translate(-4.000000, -5.476190)"></g>
                        </g>
                    </g>
                </g>
                <g id="icons/flat/square-keyline" transform="translate(297.970590, 44.970590) rotate(-248.000000) translate(-297.970590, -44.970590) translate(286.470590, 33.470590)">
                    <g>
                        <mask id="mask-14" fill="white">
                            <use xlink:href="#path-13"></use>
                        </mask>
                        <use id="Mask" fill="#000000" fill-rule="nonzero" xlink:href="#path-13"></use>
                        <g id="Colour/Mid-grey" mask="url(#mask-14)">
                            <g transform="translate(-4.000000, -5.476190)"></g>
                        </g>
                    </g>
                </g>
                <g id="Icons/flat/triangle-keyline" transform="translate(294.669701, 266.726574) rotate(-286.000000) translate(-294.669701, -266.726574) translate(279.669701, 254.726574)">
                    <g>
                        <mask id="mask-16" fill="white">
                            <use xlink:href="#path-15"></use>
                        </mask>
                        <use id="Mask" fill="#000000" fill-rule="nonzero" xlink:href="#path-15"></use>
                        <g id="Colour/gold" mask="url(#mask-16)">
                            <g transform="translate(0.000000, -3.000000)"></g>
                        </g>
                    </g>
                </g>
                <g id="Icons/flat/triangle-keyline" transform="translate(179.000000, 84.000000) rotate(-270.000000) translate(-179.000000, -84.000000) translate(164.000000, 72.000000)">
                    <g>
                        <mask id="mask-18" fill="white">
                            <use xlink:href="#path-17"></use>
                        </mask>
                        <use id="Mask" fill="#000000" fill-rule="nonzero" xlink:href="#path-17"></use>
                        <g id="Colour/Mid-grey" mask="url(#mask-18)">
                            <g transform="translate(0.000000, -3.000000)"></g>
                        </g>
                    </g>
                </g>
                <g id="icons/flat/circle-keyline-2" transform="translate(1139.000000, 205.000000) rotate(-270.000000) translate(-1139.000000, -205.000000) translate(1126.000000, 192.000000)">
                    <g>
                        <mask id="mask-20" fill="white">
                            <use xlink:href="#path-19"></use>
                        </mask>
                        <use id="Mask" fill="#979797" fill-rule="nonzero" xlink:href="#path-19"></use>
                        <g id="Colour/Light-Blue" mask="url(#mask-20)">
                            <g transform="translate(-3.000000, -3.000000)"></g>
                        </g>
                    </g>
                </g>
                <g id="icons/flat/circle-keyline-2" transform="translate(1181.795329, 158.795329) rotate(-291.000000) translate(-1181.795329, -158.795329) translate(1168.795329, 145.795329)">
                    <g>
                        <mask id="mask-22" fill="white">
                            <use xlink:href="#path-21"></use>
                        </mask>
                        <use id="Mask" fill="#979797" fill-rule="nonzero" xlink:href="#path-21"></use>
                        <g id="Colour/Light-grey" mask="url(#mask-22)">
                            <g transform="translate(-3.000000, -3.000000)"></g>
                        </g>
                    </g>
                </g>
                <g id="icons/flat/circle-keyline-2" transform="translate(1296.000000, 58.000000) rotate(-270.000000) translate(-1296.000000, -58.000000) translate(1283.000000, 45.000000)">
                    <g>
                        <mask id="mask-24" fill="white">
                            <use xlink:href="#path-23"></use>
                        </mask>
                        <use id="Mask" fill="#979797" fill-rule="nonzero" xlink:href="#path-23"></use>
                        <g id="Colour/Light-grey" mask="url(#mask-24)">
                            <g transform="translate(-3.000000, -3.000000)"></g>
                        </g>
                    </g>
                </g>
                <g id="icons/flat/square-keyline" transform="translate(1229.970590, 14.970590) rotate(-248.000000) translate(-1229.970590, -14.970590) translate(1218.470590, 3.470590)">
                    <g>
                        <mask id="mask-26" fill="white">
                            <use xlink:href="#path-25"></use>
                        </mask>
                        <use id="Mask" fill="#000000" fill-rule="nonzero" xlink:href="#path-25"></use>
                        <g id="Colour/Mid-grey" mask="url(#mask-26)">
                            <g transform="translate(-4.000000, -5.476190)"></g>
                        </g>
                    </g>
                </g>
                <g id="Icons/flat/triangle-keyline" transform="translate(1252.669701, 262.726574) rotate(-286.000000) translate(-1252.669701, -262.726574) translate(1237.669701, 250.726574)">
                    <g>
                        <mask id="mask-28" fill="white">
                            <use xlink:href="#path-27"></use>
                        </mask>
                        <use id="Mask" fill="#000000" fill-rule="nonzero" xlink:href="#path-27"></use>
                        <g id="Colour/Light-green" mask="url(#mask-28)">
                            <g transform="translate(0.000000, -3.000000)"></g>
                        </g>
                    </g>
                </g>
                <g id="Icons/flat/triangle-keyline" transform="translate(1265.000000, 176.000000) rotate(-270.000000) translate(-1265.000000, -176.000000) translate(1250.000000, 164.000000)">
                    <g>
                        <mask id="mask-30" fill="white">
                            <use xlink:href="#path-29"></use>
                        </mask>
                        <use id="Mask" fill="#000000" fill-rule="nonzero" xlink:href="#path-29"></use>
                        <g id="Colour/gold" mask="url(#mask-30)">
                            <g transform="translate(0.000000, -3.000000)"></g>
                        </g>
                    </g>
                </g>
                <g id="Icons/flat/triangle-keyline" transform="translate(1176.000000, 86.000000) rotate(-270.000000) translate(-1176.000000, -86.000000) translate(1161.000000, 74.000000)">
                    <g>
                        <mask id="mask-32" fill="white">
                            <use xlink:href="#path-31"></use>
                        </mask>
                        <use id="Mask" fill="#000000" fill-rule="nonzero" xlink:href="#path-31"></use>
                        <g id="Colour/gold" mask="url(#mask-32)">
                            <g transform="translate(0.000000, -3.000000)"></g>
                        </g>
                    </g>
                </g>
                <g id="icons/flat/circle-keyline-2" transform="translate(1113.000000, 67.000000) rotate(-270.000000) translate(-1113.000000, -67.000000) translate(1100.000000, 54.000000)">
                    <g>
                        <mask id="mask-34" fill="white">
                            <use xlink:href="#path-33"></use>
                        </mask>
                        <use id="Mask" fill="#979797" fill-rule="nonzero" xlink:href="#path-33"></use>
                        <g id="Colour/Light-grey" mask="url(#mask-34)">
                            <g transform="translate(-3.000000, -3.000000)"></g>
                        </g>
                    </g>
                </g>
                <g id="icons/flat/square-keyline" transform="translate(1046.174363, 280.174363) rotate(-219.000000) translate(-1046.174363, -280.174363) translate(1034.674363, 268.674363)">
                    <g>
                        <mask id="mask-36" fill="white">
                            <use xlink:href="#path-35"></use>
                        </mask>
                        <use id="Mask" fill="#000000" fill-rule="nonzero" xlink:href="#path-35"></use>
                        <g id="Colour/Light-green" mask="url(#mask-36)">
                            <g transform="translate(-4.000000, -5.476190)"></g>
                        </g>
                    </g>
                </g>
                <g id="Icons/flat/triangle-keyline" transform="translate(1011.578484, 179.304122) rotate(-291.000000) translate(-1011.578484, -179.304122) translate(996.578484, 167.304122)">
                    <g>
                        <mask id="mask-38" fill="white">
                            <use xlink:href="#path-37"></use>
                        </mask>
                        <use id="Mask" fill="#000000" fill-rule="nonzero" xlink:href="#path-37"></use>
                        <g id="Colour/light-tan" mask="url(#mask-38)">
                            <g transform="translate(0.000000, -3.000000)"></g>
                        </g>
                    </g>
                </g>
                <g id="Icons/flat/triangle-keyline" transform="translate(1122.691051, 142.208099) rotate(-232.000000) translate(-1122.691051, -142.208099) translate(1107.691051, 130.208099)">
                    <g>
                        <mask id="mask-40" fill="white">
                            <use xlink:href="#path-39"></use>
                        </mask>
                        <use id="Mask" fill="#000000" fill-rule="nonzero" xlink:href="#path-39"></use>
                        <g id="Colour/Light-green" mask="url(#mask-40)">
                            <g transform="translate(0.000000, -3.000000)"></g>
                        </g>
                    </g>
                </g>
                <g id="Icons/flat/triangle-keyline" transform="translate(1082.000000, 23.000000) rotate(-270.000000) translate(-1082.000000, -23.000000) translate(1067.000000, 11.000000)">
                    <g>
                        <mask id="mask-42" fill="white">
                            <use xlink:href="#path-41"></use>
                        </mask>
                        <use id="Mask" fill="#000000" fill-rule="nonzero" xlink:href="#path-41"></use>
                        <g id="Colour/Mid-grey" mask="url(#mask-42)">
                            <g transform="translate(0.000000, -3.000000)"></g>
                        </g>
                    </g>
                </g>
                <g id="Icons/flat/triangle-keyline" transform="translate(1039.578484, 110.304122) rotate(-291.000000) translate(-1039.578484, -110.304122) translate(1024.578484, 98.304122)">
                    <g>
                        <mask id="mask-44" fill="white">
                            <use xlink:href="#path-43"></use>
                        </mask>
                        <use id="Mask" fill="#000000" fill-rule="nonzero" xlink:href="#path-43"></use>
                        <g id="Colour/gold" mask="url(#mask-44)">
                            <g transform="translate(0.000000, -3.000000)"></g>
                        </g>
                    </g>
                </g>
                <g id="icons/flat/circle-keyline-2" transform="translate(91.000000, 266.000000) rotate(-270.000000) translate(-91.000000, -266.000000) translate(78.000000, 253.000000)">
                    <g>
                        <mask id="mask-46" fill="white">
                            <use xlink:href="#path-45"></use>
                        </mask>
                        <use id="Mask" fill="#979797" fill-rule="nonzero" xlink:href="#path-45"></use>
                        <g id="Colour/Light-green" mask="url(#mask-46)">
                            <g transform="translate(-3.000000, -3.000000)"></g>
                        </g>
                    </g>
                </g>
                <g id="icons/flat/square-keyline" transform="translate(11.500000, 220.500000) rotate(-270.000000) translate(-11.500000, -220.500000) translate(0.000000, 209.000000)">
                    <g>
                        <mask id="mask-48" fill="white">
                            <use xlink:href="#path-47"></use>
                        </mask>
                        <use id="Mask" fill="#000000" fill-rule="nonzero" xlink:href="#path-47"></use>
                        <g id="Colour/Mid-grey" mask="url(#mask-48)">
                            <g transform="translate(-4.000000, -5.476190)"></g>
                        </g>
                    </g>
                </g>
                <g id="Icons/flat/triangle-keyline" transform="translate(19.209034, 26.765557) rotate(-219.000000) translate(-19.209034, -26.765557) translate(4.209034, 14.765557)">
                    <g>
                        <mask id="mask-50" fill="white">
                            <use xlink:href="#path-49"></use>
                        </mask>
                        <use id="Mask" fill="#000000" fill-rule="nonzero" xlink:href="#path-49"></use>
                        <g id="Colour/Light-Blue" mask="url(#mask-50)">
                            <g transform="translate(0.000000, -3.000000)"></g>
                        </g>
                    </g>
                </g>
                <g id="Icons/flat/triangle-keyline" transform="translate(29.937011, 112.767581) rotate(-209.000000) translate(-29.937011, -112.767581) translate(14.937011, 100.767581)">
                    <g>
                        <mask id="mask-52" fill="white">
                            <use xlink:href="#path-51"></use>
                        </mask>
                        <use id="Mask" fill="#000000" fill-rule="nonzero" xlink:href="#path-51"></use>
                        <g id="Colour/light-tan" mask="url(#mask-52)">
                            <g transform="translate(0.000000, -3.000000)"></g>
                        </g>
                    </g>
                </g>
            </g>
        </g>
    </g>
</svg>