<svg xmlns="http://www.w3.org/2000/svg" width="100%" height="100%" viewBox="0 0 300 48" preserveAspectRatio="none">
  <g fill="none" fill-rule="evenodd">
    <path fill="#FFFFFF" d="M24.6454872,35.2425362 C24.9891494,35.7817127 24.7436764,36.124825 24.1545413,36.124825 L17.62496,36.124825 C17.2322032,36.124825 16.9376357,35.9777768 16.7412573,35.6346645 L9.62254083,24.5570384 L7.60966239,24.5570384 L7.60966239,35.3895843 C7.60966239,35.8307287 7.31509482,36.124825 6.87324345,36.124825 L0.736418941,36.124825 C0.294567577,36.124825 0,35.8307287 0,35.3895843 L0,2.54883433 C0,2.10768992 0.294567577,1.81359366 0.736418941,1.81359366 L11.1935679,1.81359366 C19.4414601,1.81359366 23.9581629,6.47011791 23.9581629,13.185316 C23.9581629,18.0869205 21.5525277,21.910172 16.9867302,23.5767175 L24.6454872,35.2425362 Z M7.60966239,8.52879178 L7.60966239,17.8418403 L11.0462841,17.8418403 C13.7464869,17.8418403 16.6921627,16.8125033 16.6921627,13.185316 C16.6921627,9.55812872 13.7464869,8.52879178 11.0462841,8.52879178 L7.60966239,8.52879178 Z M49.5855421,23.7237657 C49.5855421,25.7334235 49.3400691,26.7627604 47.8181366,26.7627604 L33.2370416,26.7627604 C33.9243659,29.4586429 36.0845281,30.8801082 39.4229607,30.8801082 C40.9939877,30.8801082 42.3686364,30.5369959 44.0869473,29.4586429 C44.5287987,29.1645466 44.8233662,29.2135627 45.1670284,29.556675 L47.7199474,32.0074772 C48.014515,32.3505895 48.014515,32.6937018 47.6217582,33.0858302 C45.3143122,35.3895843 42.172258,36.7620336 38.6865417,36.7620336 C31.1259739,36.7620336 25.9219467,31.2232205 25.9219467,24.1649101 C25.9219467,17.1065996 31.1259739,11.5677866 38.1465012,11.5677866 C45.1179338,11.5677866 49.5855421,17.1065996 49.5855421,23.7237657 Z M38.1955958,17.7438082 C35.740866,17.7438082 33.6788929,19.1652735 33.1388524,22.1062362 L43.0559608,22.1062362 C42.6141094,19.1652735 40.601231,17.7438082 38.1955958,17.7438082 Z M64.7066777,29.9488033 C61.5155289,29.9488033 59.2571775,27.4489851 59.2571775,24.1649101 C59.2571775,20.8808351 61.5155289,18.3810168 64.7066777,18.3810168 C66.3758939,18.3810168 67.7505426,19.0182254 69.1251913,20.2436265 C69.5179481,20.5867388 69.8616102,20.6357548 70.2052724,20.2926425 L73.7400833,16.8615194 C74.0346509,16.5674231 74.0837455,16.1752948 73.7891779,15.8321825 C71.5308265,13.2343321 68.2414886,11.5677866 64.5102993,11.5677866 C57.5879612,11.5677866 52.1875556,17.1065996 52.1875556,24.1649101 C52.1875556,31.2232205 57.5879612,36.7620336 64.5102993,36.7620336 C68.3396778,36.7620336 71.6781103,35.095488 73.9364617,32.4976377 C74.2310293,32.1545253 74.1819347,31.762397 73.8873671,31.4683007 L70.3525562,28.0861936 C70.008894,27.7430813 69.6652319,27.7430813 69.2724751,28.0861936 C67.8978264,29.2625787 66.4740831,29.9488033 64.7066777,29.9488033 Z M88.5175568,36.7620336 C81.5952187,36.7620336 75.9984348,31.2232205 75.9984348,24.1649101 C75.9984348,17.1065996 81.5952187,11.5677866 88.5175568,11.5677866 C95.4889894,11.5677866 101.085773,17.1065996 101.085773,24.1649101 C101.085773,31.2232205 95.4889894,36.7620336 88.5175568,36.7620336 Z M88.5175568,29.9488033 C91.5614217,29.9488033 93.9670569,27.5470171 93.9670569,24.1649101 C93.9670569,20.782803 91.5614217,18.3810168 88.5175568,18.3810168 C85.5227864,18.3810168 83.0680566,20.782803 83.0680566,24.1649101 C83.0680566,27.5470171 85.5227864,29.9488033 88.5175568,29.9488033 Z M119.447152,11.5677866 C116.010531,11.5677866 113.555801,13.3813802 112.033868,15.8811985 L111.83749,12.8422037 C111.788395,12.4010593 111.542922,12.1069631 111.101071,12.1069631 L105.406098,12.1069631 C104.964246,12.1069631 104.669679,12.4010593 104.669679,12.8422037 L104.669679,35.3895843 C104.669679,35.8307287 104.964246,36.124825 105.406098,36.124825 L111.297449,36.124825 C111.739301,36.124825 112.033868,35.8307287 112.033868,35.3895843 L112.033868,22.7924608 C112.033868,21.6160757 113.408517,18.3810168 116.697855,18.3810168 C118.661639,18.3810168 120.821801,19.5083858 120.821801,23.3806533 L120.821801,35.3895843 C120.821801,35.8307287 121.116369,36.124825 121.55822,36.124825 L127.449571,36.124825 C127.891423,36.124825 128.18599,35.8307287 128.18599,35.3895843 L128.18599,21.910172 C128.18599,15.4890701 124.307517,11.5677866 119.447152,11.5677866 Z M154.451599,7.8915832 C156.611762,7.8915832 158.379167,6.12700559 158.379167,3.97029962 C158.379167,1.76457761 156.611762,0 154.451599,0 C152.242342,0 150.474937,1.76457761 150.474937,3.97029962 C150.474937,6.12700559 152.242342,7.8915832 154.451599,7.8915832 Z M147.283788,0.882288805 C146.154613,0.245080224 144.730869,0.0490160447 142.963464,0.0490160447 C137.710342,0.0490160447 134.126437,2.69588246 134.126437,8.52879178 L134.126437,12.1069631 L131.27895,12.1069631 C130.837099,12.1069631 130.542531,12.4010593 130.542531,12.8422037 L130.542531,17.3026638 C130.542531,17.7438082 130.837099,18.0379045 131.27895,18.0379045 L134.126437,18.0379045 L134.126437,35.3895843 C134.126437,35.8307287 134.421004,36.124825 134.862855,36.124825 L140.754207,36.124825 C141.196058,36.124825 141.490626,35.8307287 141.490626,35.3895843 L141.490626,18.0379045 L146.596464,18.0379045 C147.038315,18.0379045 147.332883,17.7438082 147.332883,17.3026638 L147.332883,12.8422037 C147.332883,12.4010593 147.038315,12.1069631 146.596464,12.1069631 L141.490626,12.1069631 L141.490626,9.50911268 C141.490626,7.84256716 141.687004,6.66618208 143.99445,6.66618208 C144.878153,6.66618208 145.90914,6.86224626 146.891032,7.4504388 C147.332883,7.74453507 147.774734,7.54847089 147.774734,6.96027835 L147.774734,1.76457761 C147.774734,1.37244925 147.62745,1.07835298 147.283788,0.882288805 Z M157.397275,12.1069631 L151.505924,12.1069631 C151.064072,12.1069631 150.769505,12.4010593 150.769505,12.8422037 L150.769505,35.3895843 C150.769505,35.8307287 151.064072,36.124825 151.505924,36.124825 L157.397275,36.124825 C157.839126,36.124825 158.133694,35.8307287 158.133694,35.3895843 L158.133694,12.8422037 C158.133694,12.4010593 157.839126,12.1069631 157.397275,12.1069631 Z M186.461276,12.1069631 C186.903127,12.1069631 187.197695,12.4010593 187.197695,12.8422037 L187.197695,35.9287608 C187.197695,43.6242798 179.8826,45.8300018 174.384005,45.8300018 C170.16187,45.8300018 166.234302,44.5555847 163.681383,42.692975 C163.337721,42.4478947 163.288627,42.1047824 163.485005,41.7126541 L165.399694,38.2815309 C165.694262,37.8894026 165.939735,37.7423544 166.381586,37.9874347 C168.639938,39.3108679 170.947384,39.8500444 173.79487,39.8500444 C176.347789,39.8500444 180.422641,38.9677556 180.422641,35.2915522 L180.422641,33.0368142 C178.753424,34.9484399 176.396884,36.2718731 173.353019,36.2718731 C166.676154,36.2718731 161.766694,30.684044 161.766694,23.9198298 C161.766694,17.1556157 166.676154,11.5677866 173.353019,11.5677866 C176.200505,11.5677866 178.507951,12.8422037 180.226262,14.7538295 L180.373546,12.8422037 C180.422641,12.4010593 180.668114,12.1069631 181.109965,12.1069631 L186.461276,12.1069631 Z M174.285816,29.556675 C177.378776,29.556675 179.686222,26.8117765 179.686222,23.8708138 C179.686222,20.9298511 177.378776,18.2339686 174.285816,18.2339686 C171.143762,18.2339686 168.836316,20.782803 168.836316,23.8708138 C168.836316,27.0078407 171.143762,29.556675 174.285816,29.556675 Z M214.052439,12.1069631 L208.161087,12.1069631 C207.719236,12.1069631 207.424668,12.4010593 207.424668,12.8422037 L207.424668,25.6353914 C207.424668,27.4489851 206.000925,29.8997873 202.858871,29.8997873 C200.993276,29.8997873 198.636736,28.8214343 198.636736,24.9491668 L198.636736,12.8422037 C198.636736,12.4010593 198.342168,12.1069631 197.900317,12.1069631 L192.008965,12.1069631 C191.567114,12.1069631 191.272546,12.4010593 191.272546,12.8422037 L191.272546,26.4196481 C191.272546,32.84075 195.101925,36.7620336 200.453236,36.7620336 C203.349817,36.7620336 205.804547,35.095488 207.424668,32.7917339 L207.621047,35.3895843 C207.670141,35.8307287 207.915614,36.124825 208.357466,36.124825 L214.052439,36.124825 C214.49429,36.124825 214.788858,35.8307287 214.788858,35.3895843 L214.788858,12.8422037 C214.788858,12.4010593 214.49429,12.1069631 214.052439,12.1069631 Z M235.948629,12.7931877 C235.261304,12.1559791 234.03394,11.5677866 232.610196,11.5677866 C229.664521,11.5677866 227.651642,13.2833481 226.424277,15.6361183 L226.227899,12.8422037 C226.178804,12.4010593 225.933331,12.1069631 225.49148,12.1069631 L219.845601,12.1069631 C219.40375,12.1069631 219.109182,12.4010593 219.109182,12.8422037 L219.109182,35.3895843 C219.109182,35.8307287 219.40375,36.124825 219.845601,36.124825 L225.736953,36.124825 C226.178804,36.124825 226.473372,35.8307287 226.473372,35.3895843 L226.473372,23.4296694 C226.473372,20.4887067 228.289872,18.2339686 231.333737,18.2339686 C232.266534,18.2339686 232.855669,18.4790489 233.346615,18.626097 C233.93575,18.7731451 234.377602,18.675113 234.57398,18.0869205 L236.194102,13.8715407 C236.341386,13.5284283 236.341386,13.1363 235.948629,12.7931877 Z M260.397738,23.7237657 C260.397738,25.7334235 260.152265,26.7627604 258.630332,26.7627604 L244.049237,26.7627604 C244.736562,29.4586429 246.896724,30.8801082 250.235156,30.8801082 C251.806183,30.8801082 253.180832,30.5369959 254.899143,29.4586429 C255.340994,29.1645466 255.635562,29.2135627 255.979224,29.556675 L258.532143,32.0074772 C258.826711,32.3505895 258.826711,32.6937018 258.433954,33.0858302 C256.126508,35.3895843 252.984454,36.7620336 249.498737,36.7620336 C241.93817,36.7620336 236.734142,31.2232205 236.734142,24.1649101 C236.734142,17.1065996 241.93817,11.5677866 248.958697,11.5677866 C255.930129,11.5677866 260.397738,17.1065996 260.397738,23.7237657 Z M249.007791,17.7438082 C246.553062,17.7438082 244.491089,19.1652735 243.951048,22.1062362 L253.868156,22.1062362 C253.426305,19.1652735 251.413427,17.7438082 249.007791,17.7438082 Z"/>
    <path fill="#E9AB70" d="M265.869938,36.4556833 C267.178341,36.4556833 268.217366,35.4432569 268.217366,34.1683495 C268.217366,32.8934422 267.178341,31.8810158 265.869938,31.8810158 C264.561536,31.8810158 263.522511,32.8934422 263.522511,34.1683495 C263.522511,35.4432569 264.561536,36.4556833 265.869938,36.4556833 Z M274.861998,14.3697888 C276.555225,14.3697888 277.940592,13.0198869 277.940592,11.3700068 C277.940592,9.68262948 276.555225,8.33272761 274.861998,8.33272761 C273.130289,8.33272761 271.744922,9.68262948 271.744922,11.3700068 C271.744922,13.0198869 273.130289,14.3697888 274.861998,14.3697888 Z M271.975816,18.1570135 L271.975816,35.4057596 C271.975816,35.7432351 272.206711,35.9682187 272.553053,35.9682187 L277.170944,35.9682187 C277.517285,35.9682187 277.74818,35.7432351 277.74818,35.4057596 L277.74818,18.1570135 C277.74818,17.819538 277.517285,17.5945543 277.170944,17.5945543 L272.553053,17.5945543 C272.206711,17.5945543 271.975816,17.819538 271.975816,18.1570135 Z M290.126693,36.4556833 C284.700671,36.4556833 280.313675,32.2184913 280.313675,26.8188838 C280.313675,21.4192763 284.700671,17.1820843 290.126693,17.1820843 C295.591197,17.1820843 299.978194,21.4192763 299.978194,26.8188838 C299.978194,32.2184913 295.591197,36.4556833 290.126693,36.4556833 Z M290.126693,31.2435622 C292.512603,31.2435622 294.398242,29.4061957 294.398242,26.8188838 C294.398242,24.2315719 292.512603,22.3942054 290.126693,22.3942054 C287.779265,22.3942054 285.855144,24.2315719 285.855144,26.8188838 C285.855144,29.4061957 287.779265,31.2435622 290.126693,31.2435622 Z"/>
  </g>
</svg>
