<?xml version="1.0" encoding="UTF-8"?>
<svg width="404px" height="250px" viewBox="0 0 404 250" version="1.1" xmlns="http://www.w3.org/2000/svg" xmlns:xlink="http://www.w3.org/1999/xlink">
    <!-- Generator: Sketch 46.2 (44496) - http://www.bohemiancoding.com/sketch -->
    <title>Group 5</title>
    <desc>Created with Sketch.</desc>
    <defs></defs>
    <g id="Skinned" stroke="none" stroke-width="1" fill="none" fill-rule="evenodd">
        <g id="W-0.0-Home" transform="translate(-817.000000, -3180.000000)">
            <g id="Sign-up-strip" transform="translate(0.000000, 3040.000000)">
                <g id="Group-5" transform="translate(819.000000, 141.000000)">
                    <g id="Page-1" transform="translate(75.000000, 0.000000)">
                        <polygon id="Fill-1" fill="#474B57" opacity="0.3" points="205.643414 189.199659 104.243205 248 106.071094 73.8320611"></polygon>
                        <polygon id="Fill-3" fill="#474B57" opacity="0.1" points="104.29264 248 1.895331 189.199659 106.138536 73.8320611"></polygon>
                        <polygon id="Stroke-5" stroke="#474B57" stroke-width="2" stroke-linejoin="round" points="102.397309 248 0 189.199659 104.243205 73.8320611"></polygon>
                        <polygon id="Stroke-7" stroke="#474B57" stroke-width="2" stroke-linejoin="round" points="202.800417 189.199659 101.400209 248 103.228098 73.8320611"></polygon>
                        <g id="Group-13" transform="translate(130.777839, 0.000000)" stroke-width="2" stroke="#474B57" stroke-linejoin="round">
                            <polygon id="Stroke-9" points="194.933309 115.135647 93.4637905 173.75323 95.2929289 0.12662453"></polygon>
                            <polygon id="Stroke-11" points="0.502373555 105.666348 25.4502384 134.462245 93.4646898 173.75359 95.2920296 0.125184825"></polygon>
                        </g>
                    </g>
                    <g id="Group-23" transform="translate(41.000000, 92.000000)" stroke-width="2" stroke="#91C9C8">
                        <polygon id="Stroke-2" points="17.5 40.0903721 0 29.9061628 0.00567567568 9.53488372 17.5 19.717186"></polygon>
                        <polygon id="Stroke-5" points="34.527027 29.6458605 17.027027 39.8300698 17.027027 19.4559302 34.0833784 9.53488372"></polygon>
                        <polygon id="Stroke-8" points="17.5 0 0 10.1851628 17.4943243 20.3665116 34.5506757 10.4454651"></polygon>
                    </g>
                    <g id="Group-12" transform="translate(0.000000, 202.000000)" stroke-width="2" stroke="#8ECAAE">
                        <g id="Group-17">
                            <polygon id="Stroke-2" points="17.5263158 29.660625 0 19.6471875 17.8417895 0"></polygon>
                            <polygon id="Stroke-5" points="35.5263158 19.6471875 18 29.660625 18.3154737 0"></polygon>
                        </g>
                    </g>
                </g>
            </g>
        </g>
    </g>
</svg>