<?xml version="1.0" encoding="UTF-8"?>
<svg width="288px" height="44px" viewBox="0 0 288 44" version="1.1" xmlns="http://www.w3.org/2000/svg" xmlns:xlink="http://www.w3.org/1999/xlink">
    <!-- Generator: Sketch 46.1 (44463) - http://www.bohemiancoding.com/sketch -->
    <title>Reconfigure loto type</title>
    <desc>Created with Sketch.</desc>
    <defs></defs>
    <g id="Symbols" stroke="none" stroke-width="1" fill="none" fill-rule="evenodd">
        <g id="Navigation/Desktop/Header" transform="translate(-40.000000, -42.000000)">
            <g id="Reconfigure-loto-type" transform="translate(40.000000, 42.000000)">
                <path d="M23.6613876,33.8352941 C23.9913273,34.3529412 23.7556561,34.6823529 23.1900452,34.6823529 L16.9211916,34.6823529 C16.5441176,34.6823529 16.2613122,34.5411765 16.0727753,34.2117647 L9.23831071,23.5764706 L7.30580694,23.5764706 L7.30580694,33.9764706 C7.30580694,34.4 7.02300151,34.6823529 6.59879336,34.6823529 L0.707013575,34.6823529 C0.28280543,34.6823529 0,34.4 0,33.9764706 L0,2.44705882 C0,2.02352941 0.28280543,1.74117647 0.707013575,1.74117647 L10.7466063,1.74117647 C18.6651584,1.74117647 23.0015083,6.21176471 23.0015083,12.6588235 C23.0015083,17.3647059 20.6919306,21.0352941 16.3084465,22.6352941 L23.6613876,33.8352941 Z M7.30580694,8.18823529 L7.30580694,17.1294118 L10.6052036,17.1294118 C13.1975867,17.1294118 16.025641,16.1411765 16.025641,12.6588235 C16.025641,9.17647059 13.1975867,8.18823529 10.6052036,8.18823529 L7.30580694,8.18823529 Z M47.6055807,22.7764706 C47.6055807,24.7058824 47.3699095,25.6941176 45.9087481,25.6941176 L31.9098793,25.6941176 C32.5697587,28.2823529 34.6436652,29.6470588 37.8487934,29.6470588 C39.357089,29.6470588 40.6768477,29.3176471 42.326546,28.2823529 C42.7507541,28 43.0335596,28.0470588 43.3634992,28.3764706 L45.8144796,30.7294118 C46.0972851,31.0588235 46.0972851,31.3882353 45.7202112,31.7647059 C43.504902,33.9764706 40.4883107,35.2941176 37.1417798,35.2941176 C29.8831071,35.2941176 24.8868778,29.9764706 24.8868778,23.2 C24.8868778,16.4235294 29.8831071,11.1058824 36.6233032,11.1058824 C43.316365,11.1058824 47.6055807,16.4235294 47.6055807,22.7764706 Z M36.6704374,17.0352941 C34.3137255,17.0352941 32.3340875,18.4 31.8156109,21.2235294 L41.336727,21.2235294 C40.9125189,18.4 38.9800151,17.0352941 36.6704374,17.0352941 Z M62.1229261,28.7529412 C59.0592006,28.7529412 56.8910256,26.3529412 56.8910256,23.2 C56.8910256,20.0470588 59.0592006,17.6470588 62.1229261,17.6470588 C63.7254902,17.6470588 65.0452489,18.2588235 66.3650075,19.4352941 C66.7420814,19.7647059 67.0720211,19.8117647 67.4019608,19.4823529 L70.7956259,16.1882353 C71.0784314,15.9058824 71.1255656,15.5294118 70.8427602,15.2 C68.6745852,12.7058824 65.5165913,11.1058824 61.9343891,11.1058824 C55.2884615,11.1058824 50.1036953,16.4235294 50.1036953,23.2 C50.1036953,29.9764706 55.2884615,35.2941176 61.9343891,35.2941176 C65.6108597,35.2941176 68.8159879,33.6941176 70.9841629,31.2 C71.2669683,30.8705882 71.2198341,30.4941176 70.9370287,30.2117647 L67.5433635,26.9647059 C67.2134238,26.6352941 66.8834842,26.6352941 66.5064103,26.9647059 C65.1866516,28.0941176 63.8197587,28.7529412 62.1229261,28.7529412 Z M84.9830317,35.2941176 C78.3371041,35.2941176 72.9638009,29.9764706 72.9638009,23.2 C72.9638009,16.4235294 78.3371041,11.1058824 84.9830317,11.1058824 C91.6760935,11.1058824 97.0493967,16.4235294 97.0493967,23.2 C97.0493967,29.9764706 91.6760935,35.2941176 84.9830317,35.2941176 Z M84.9830317,28.7529412 C87.9053544,28.7529412 90.2149321,26.4470588 90.2149321,23.2 C90.2149321,19.9529412 87.9053544,17.6470588 84.9830317,17.6470588 C82.1078431,17.6470588 79.7511312,19.9529412 79.7511312,23.2 C79.7511312,26.4470588 82.1078431,28.7529412 84.9830317,28.7529412 Z M114.677602,11.1058824 C111.378205,11.1058824 109.021493,12.8470588 107.560332,15.2470588 L107.371795,12.3294118 C107.324661,11.9058824 107.088989,11.6235294 106.664781,11.6235294 L101.19721,11.6235294 C100.773002,11.6235294 100.490196,11.9058824 100.490196,12.3294118 L100.490196,33.9764706 C100.490196,34.4 100.773002,34.6823529 101.19721,34.6823529 L106.853318,34.6823529 C107.277526,34.6823529 107.560332,34.4 107.560332,33.9764706 L107.560332,21.8823529 C107.560332,20.7529412 108.88009,17.6470588 112.038084,17.6470588 C113.923454,17.6470588 115.99736,18.7294118 115.99736,22.4470588 L115.99736,33.9764706 C115.99736,34.4 116.280166,34.6823529 116.704374,34.6823529 L122.360483,34.6823529 C122.784691,34.6823529 123.067496,34.4 123.067496,33.9764706 L123.067496,21.0352941 C123.067496,14.8705882 119.343891,11.1058824 114.677602,11.1058824 Z M148.284314,7.57647059 C150.35822,7.57647059 152.055053,5.88235294 152.055053,3.81176471 C152.055053,1.69411765 150.35822,0 148.284314,0 C146.163273,0 144.46644,1.69411765 144.46644,3.81176471 C144.46644,5.88235294 146.163273,7.57647059 148.284314,7.57647059 Z M141.402715,0.847058824 C140.318627,0.235294118 138.951735,0.0470588235 137.254902,0.0470588235 C132.211538,0.0470588235 128.770739,2.58823529 128.770739,8.18823529 L128.770739,11.6235294 L126.036953,11.6235294 C125.612745,11.6235294 125.32994,11.9058824 125.32994,12.3294118 L125.32994,16.6117647 C125.32994,17.0352941 125.612745,17.3176471 126.036953,17.3176471 L128.770739,17.3176471 L128.770739,33.9764706 C128.770739,34.4 129.053544,34.6823529 129.477753,34.6823529 L135.133861,34.6823529 C135.558069,34.6823529 135.840875,34.4 135.840875,33.9764706 L135.840875,17.3176471 L140.742836,17.3176471 C141.167044,17.3176471 141.449849,17.0352941 141.449849,16.6117647 L141.449849,12.3294118 C141.449849,11.9058824 141.167044,11.6235294 140.742836,11.6235294 L135.840875,11.6235294 L135.840875,9.12941176 C135.840875,7.52941176 136.029412,6.4 138.244721,6.4 C139.093137,6.4 140.082956,6.58823529 141.025641,7.15294118 C141.449849,7.43529412 141.874057,7.24705882 141.874057,6.68235294 L141.874057,1.69411765 C141.874057,1.31764706 141.732655,1.03529412 141.402715,0.847058824 Z M151.112368,11.6235294 L145.456259,11.6235294 C145.032051,11.6235294 144.749246,11.9058824 144.749246,12.3294118 L144.749246,33.9764706 C144.749246,34.4 145.032051,34.6823529 145.456259,34.6823529 L151.112368,34.6823529 C151.536576,34.6823529 151.819382,34.4 151.819382,33.9764706 L151.819382,12.3294118 C151.819382,11.9058824 151.536576,11.6235294 151.112368,11.6235294 Z M179.015837,11.6235294 C179.440045,11.6235294 179.722851,11.9058824 179.722851,12.3294118 L179.722851,34.4941176 C179.722851,41.8823529 172.699849,44 167.420814,44 C163.36727,44 159.596531,42.7764706 157.145551,40.9882353 C156.815611,40.7529412 156.768477,40.4235294 156.957014,40.0470588 L158.795249,36.7529412 C159.078054,36.3764706 159.313725,36.2352941 159.737934,36.4705882 C161.906109,37.7411765 164.121418,38.2588235 166.855204,38.2588235 C169.306184,38.2588235 173.218326,37.4117647 173.218326,33.8823529 L173.218326,31.7176471 C171.615762,33.5529412 169.353318,34.8235294 166.430995,34.8235294 C160.020739,34.8235294 155.307315,29.4588235 155.307315,22.9647059 C155.307315,16.4705882 160.020739,11.1058824 166.430995,11.1058824 C169.164781,11.1058824 171.38009,12.3294118 173.029789,14.1647059 L173.171192,12.3294118 C173.218326,11.9058824 173.453997,11.6235294 173.878205,11.6235294 L179.015837,11.6235294 Z M167.326546,28.3764706 C170.296003,28.3764706 172.511312,25.7411765 172.511312,22.9176471 C172.511312,20.0941176 170.296003,17.5058824 167.326546,17.5058824 C164.309955,17.5058824 162.094646,19.9529412 162.094646,22.9176471 C162.094646,25.9294118 164.309955,28.3764706 167.326546,28.3764706 Z M205.505279,11.6235294 L199.84917,11.6235294 C199.424962,11.6235294 199.142157,11.9058824 199.142157,12.3294118 L199.142157,24.6117647 C199.142157,26.3529412 197.775264,28.7058824 194.758673,28.7058824 C192.967572,28.7058824 190.705128,27.6705882 190.705128,23.9529412 L190.705128,12.3294118 C190.705128,11.9058824 190.422323,11.6235294 189.998115,11.6235294 L184.342006,11.6235294 C183.917798,11.6235294 183.634992,11.9058824 183.634992,12.3294118 L183.634992,25.3647059 C183.634992,31.5294118 187.311463,35.2941176 192.449095,35.2941176 C195.230015,35.2941176 197.586727,33.6941176 199.142157,31.4823529 L199.330694,33.9764706 C199.377828,34.4 199.613499,34.6823529 200.037707,34.6823529 L205.505279,34.6823529 C205.929487,34.6823529 206.212293,34.4 206.212293,33.9764706 L206.212293,12.3294118 C206.212293,11.9058824 205.929487,11.6235294 205.505279,11.6235294 Z M226.527149,12.2823529 C225.86727,11.6705882 224.688914,11.1058824 223.322021,11.1058824 C220.493967,11.1058824 218.561463,12.7529412 217.383107,15.0117647 L217.19457,12.3294118 C217.147436,11.9058824 216.911765,11.6235294 216.487557,11.6235294 L211.067119,11.6235294 C210.642911,11.6235294 210.360106,11.9058824 210.360106,12.3294118 L210.360106,33.9764706 C210.360106,34.4 210.642911,34.6823529 211.067119,34.6823529 L216.723228,34.6823529 C217.147436,34.6823529 217.430241,34.4 217.430241,33.9764706 L217.430241,22.4941176 C217.430241,19.6705882 219.174208,17.5058824 222.096531,17.5058824 C222.992081,17.5058824 223.557692,17.7411765 224.029035,17.8823529 C224.594646,18.0235294 225.018854,17.9294118 225.207391,17.3647059 L226.762821,13.3176471 C226.904223,12.9882353 226.904223,12.6117647 226.527149,12.2823529 Z M250,22.7764706 C250,24.7058824 249.764329,25.6941176 248.303167,25.6941176 L234.304299,25.6941176 C234.964178,28.2823529 237.038084,29.6470588 240.243213,29.6470588 C241.751508,29.6470588 243.071267,29.3176471 244.720965,28.2823529 C245.145173,28 245.427979,28.0470588 245.757919,28.3764706 L248.208899,30.7294118 C248.491704,31.0588235 248.491704,31.3882353 248.11463,31.7647059 C245.899321,33.9764706 242.88273,35.2941176 239.536199,35.2941176 C232.277526,35.2941176 227.281297,29.9764706 227.281297,23.2 C227.281297,16.4235294 232.277526,11.1058824 239.017722,11.1058824 C245.710784,11.1058824 250,16.4235294 250,22.7764706 Z M239.064857,17.0352941 C236.708145,17.0352941 234.728507,18.4 234.21003,21.2235294 L243.731146,21.2235294 C243.306938,18.4 241.374434,17.0352941 239.064857,17.0352941 Z" id="Reconfigure" fill="#474B57"></path>
                <path d="M255.253695,35 C256.509852,35 257.507389,34.028 257.507389,32.804 C257.507389,31.58 256.509852,30.608 255.253695,30.608 C253.997537,30.608 253,31.58 253,32.804 C253,34.028 253.997537,35 255.253695,35 Z M263.8867,13.796 C265.512315,13.796 266.842365,12.5 266.842365,10.916 C266.842365,9.296 265.512315,8 263.8867,8 C262.224138,8 260.894089,9.296 260.894089,10.916 C260.894089,12.5 262.224138,13.796 263.8867,13.796 Z M261.115764,17.432 L261.115764,33.992 C261.115764,34.316 261.337438,34.532 261.669951,34.532 L266.103448,34.532 C266.435961,34.532 266.657635,34.316 266.657635,33.992 L266.657635,17.432 C266.657635,17.108 266.435961,16.892 266.103448,16.892 L261.669951,16.892 C261.337438,16.892 261.115764,17.108 261.115764,17.432 Z M278.541872,35 C273.332512,35 269.12069,30.932 269.12069,25.748 C269.12069,20.564 273.332512,16.496 278.541872,16.496 C283.788177,16.496 288,20.564 288,25.748 C288,30.932 283.788177,35 278.541872,35 Z M278.541872,29.996 C280.832512,29.996 282.642857,28.232 282.642857,25.748 C282.642857,23.264 280.832512,21.5 278.541872,21.5 C276.288177,21.5 274.440887,23.264 274.440887,25.748 C274.440887,28.232 276.288177,29.996 278.541872,29.996 Z" id=".io" fill="#E9AB70"></path>
            </g>
        </g>
    </g>
</svg>